<svg width="94" height="87" viewBox="0 0 94 87" fill="none" xmlns="http://www.w3.org/2000/svg">
<mask id="mask0_310_1843" style="mask-type:luminance" maskUnits="userSpaceOnUse" x="0" y="0" width="94" height="87">
<path d="M94 0H0V87H94V0Z" fill="white"/>
</mask>
<g mask="url(#mask0_310_1843)">
<path d="M93.8868 37.1394L44.2471 2V72.29L93.8868 37.1394Z" fill="#00abff"/>
<g filter="url(#filter0_dd_310_1843)">
<path d="M66.131 42.0823C69.0357 29.7754 61.4137 17.4439 49.1068 14.5393C36.7999 11.6346 24.4684 19.2565 21.5637 31.5634C18.659 43.8703 26.281 56.2018 38.5879 59.1065C50.8948 62.0112 63.2263 54.3892 66.131 42.0823Z" fill="white"/>
</g>
<path d="M38.8374 31.9667V29H48.5511V31.3925L45.2973 35.101C46.4494 35.2428 47.5051 35.8155 48.252 36.704C48.9631 37.5249 49.3577 38.5728 49.3646 39.6588C49.3996 40.3991 49.2647 41.1376 48.9703 41.8177C48.6758 42.4978 48.2296 43.1015 47.6658 43.5826C46.4396 44.5594 44.9018 45.0607 43.3354 44.9941C41.4088 44.9383 39.546 44.2909 38 43.14L39.4595 40.3167C40.5777 41.2296 41.9451 41.7841 43.3832 41.9078C44.0099 41.9339 44.6279 41.7531 45.1417 41.3934C45.3727 41.2161 45.5567 40.9849 45.6777 40.7201C45.7986 40.4552 45.8528 40.1648 45.8355 39.8741C45.8444 39.5666 45.7757 39.2618 45.6356 38.9879C45.4955 38.714 45.2886 38.4798 45.0341 38.307C44.3797 37.8874 43.609 37.6864 42.8329 37.7328C42.1144 37.7763 41.4055 37.9213 40.7275 38.1635V35.5556L43.7661 31.9667H38.8374Z" fill="black"/>
</g>
<defs>
<filter id="filter0_dd_310_1843" x="0.946289" y="0.921875" width="85.8018" height="85.8018" filterUnits="userSpaceOnUse" color-interpolation-filters="sRGB">
<feFlood flood-opacity="0" result="BackgroundImageFix"/>
<feColorMatrix in="SourceAlpha" type="matrix" values="0 0 0 0 0 0 0 0 0 0 0 0 0 0 0 0 0 0 127 0" result="hardAlpha"/>
<feOffset dy="7"/>
<feGaussianBlur stdDeviation="10"/>
<feColorMatrix type="matrix" values="0     0     0     0     0
              0     0     0     0     0
              0     0     1     0     0
              0     0     0     0.1     0"/>
<feBlend mode="normal" in2="BackgroundImageFix" result="effect1_dropShadow_310_1843"/>
<feColorMatrix in="SourceAlpha" type="matrix" values="0     0     0     0     0
              0     0     0     0     0
              0     0     1     0     0
              0     0     0     0.1     0" result="hardAlpha"/>
<feOffset dx="-1" dy="1"/>
<feGaussianBlur stdDeviation="2"/>
<feColorMatrix type="matrix" values="0     0     0     0     0
              0     0     0     0     0
              0     0     1     0     0
              0     0     0     0.1     0"/>
<feBlend mode="normal" in2="effect1_dropShadow_310_1843" result="effect2_dropShadow_310_1843"/>
<feBlend mode="normal" in="SourceGraphic" in2="effect2_dropShadow_310_1843" result="shape"/>
</filter>
</defs>
</svg>
