<svg width="921" height="1741" viewBox="0 0 921 1741" fill="none" xmlns="http://www.w3.org/2000/svg">
<path d="M428.44 1366.29C426.71 1366.5 254.67 1386.81 147.83 1341.95L130.67 1334.75L134.13 1353.04C134.4 1354.47 141 1388.81 157.48 1433.12C179.72 1492.94 208.11 1539.92 241.85 1572.77L244.87 1575.71L439.65 1570.66V1364.92L428.44 1366.29ZM419.65 1551.17L252.84 1555.5C195.77 1497.77 167.66 1405.69 157.9 1367.16C202.71 1382.52 259.87 1390.57 328.2 1391.11C369.21 1391.44 402.97 1388.89 419.65 1387.32V1551.17Z" fill="#173485"/>
<path d="M419.65 1387.32V1551.17L252.84 1555.5C195.77 1497.77 167.66 1405.69 157.9 1367.16C202.71 1382.52 259.87 1390.57 328.2 1391.11C369.21 1391.44 402.97 1388.89 419.65 1387.32Z" fill="#1278CC"/>
<path d="M220.02 1467.16C216.66 1460.02 220.9 1451.64 228.64 1450.11C248.7 1446.14 282.44 1439.79 288.88 1440.64C295.45 1441.51 311.19 1465.09 319.58 1478.78C323.03 1484.4 321.38 1489.74 315.8 1491.75C295.94 1498.93 250.52 1514.62 243.88 1509.26C238.33 1504.77 227.14 1482.27 220.02 1467.16Z" fill="#3E9CF3"/>
<path d="M381.22 1607.74H293.83C270.81 1607.74 252.09 1626.46 252.09 1649.48V1679.48C252.09 1702.49 270.81 1721.22 293.83 1721.22H381.22C404.23 1721.22 422.96 1702.49 422.96 1679.48V1649.48C422.96 1626.46 404.23 1607.74 381.22 1607.74ZM404.96 1679.48C404.96 1692.57 394.31 1703.22 381.22 1703.22H293.83C280.74 1703.22 270.09 1692.57 270.09 1679.48V1649.48C270.09 1636.39 280.74 1625.74 293.83 1625.74H381.22C394.31 1625.74 404.96 1636.39 404.96 1649.48V1679.48Z" fill="#131831"/>
<path d="M404.96 1649.48V1679.48C404.96 1692.57 394.31 1703.22 381.22 1703.22H293.83C280.74 1703.22 270.09 1692.57 270.09 1679.48V1649.48C270.09 1636.39 280.74 1625.74 293.83 1625.74H381.22C394.31 1625.74 404.96 1636.39 404.96 1649.48Z" fill="#1F2640"/>
<path d="M258.15 1535.17C253.37 1536.11 195.21 1609.31 191.35 1631.85C187.49 1654.38 198.2 1712.58 218.56 1725.72C229.13 1732.55 240.69 1732.81 250.73 1727.14C260.02 1721.91 268.02 1711.59 272.74 1696.69C282.56 1665.71 320.54 1645.88 320.54 1645.88C320.54 1645.88 304.63 1607.11 309.57 1568.28C311.01 1556.93 314.23 1545.58 320.15 1535.19C320.13 1535.19 262.93 1534.22 258.15 1535.17Z" fill="#2C3450"/>
<path d="M287.92 1568.61C283.86 1569.41 234.56 1631.47 231.28 1650.58C228.36 1667.66 235.29 1708.85 249.13 1725.38C249.65 1726 250.18 1726.59 250.73 1727.14C260.02 1721.91 268.02 1711.59 272.74 1696.69C282.56 1665.71 320.54 1645.88 320.54 1645.88C320.54 1645.88 318.54 1641 316.18 1632.97C311.88 1618.36 306.39 1593.34 309.57 1568.27C299.11 1568.22 289.62 1568.27 287.92 1568.61Z" fill="#1F2640"/>
<path d="M182.6 1630.35C185.02 1616.25 202.78 1589.83 217.25 1570.15C224.66 1560.07 232.75 1549.74 239.44 1541.78C250.95 1528.11 253.39 1527.05 256.43 1526.45C261.4 1525.47 298.56 1525.94 320.27 1526.31L335.25 1526.56L327.84 1539.58C304.17 1581.16 328.5 1641.9 328.74 1642.51L331.82 1650L324.64 1653.75C324.29 1653.93 289.81 1672.2 281.19 1699.37C275.02 1718.83 263.53 1732.46 248.82 1737.75C237.22 1741.92 224.76 1740.3 213.73 1733.18C199.61 1724.06 191.53 1701.65 187.24 1684.45C185.3 1676.66 183.83 1668.69 182.89 1661.12C181.42 1649.16 181.26 1638.16 182.6 1630.35ZM306.33 1543.87C286.59 1543.61 267.79 1543.54 261.46 1543.8C257.07 1548.14 244.15 1563.32 229.49 1583.5C209.37 1611.18 201.12 1627.4 200.1 1633.35C196.44 1654.68 207.7 1708.15 223.37 1718.27C229.73 1722.38 236.45 1723.34 242.81 1721.05C252.05 1717.73 259.87 1707.87 264.26 1694.02C272.49 1668.06 297.48 1649.66 309.65 1641.98C303.96 1624.99 292.31 1581.65 306.33 1543.87Z" fill="#131831"/>
<path d="M637.77 1399.44C637.57 1400.44 611.28 1528.79 537.22 1585.3C517.17 1600.6 493.45 1612.81 469.24 1622.24C403.66 1647.79 334.46 1652.97 324.74 1644C311.43 1631.72 310.65 1545.39 310.65 1545.39L397.91 1501.96L387.46 1402.17C467.69 1440.99 560.9 1423.01 607.7 1409.52C626.13 1404.22 637.36 1399.6 637.77 1399.44Z" fill="#1278CC"/>
<path d="M394.13 1507.7C375.09 1506.66 315.09 1540.05 315.09 1540.05L316.35 1576.32C316.38 1575.25 385.96 1531.18 404 1525.44C422.04 1519.7 438.58 1522.8 438.58 1522.8C438.58 1522.8 413.17 1508.74 394.13 1507.7Z" fill="#3E9CF3"/>
<path d="M637.77 1399.44C637.57 1400.44 611.28 1528.79 537.22 1585.3C517.17 1600.6 493.45 1612.81 469.24 1622.24C475.23 1614.14 486.43 1604.27 504.42 1592.28C610.86 1521.34 610.26 1434.04 607.7 1409.52C626.13 1404.22 637.36 1399.6 637.77 1399.44Z" fill="#3E9CF3"/>
<path d="M650.85 1386.55L630.98 1388.8C631 1389.02 633.26 1411.05 624.2 1443.02C615.85 1472.5 595.86 1516.78 548.1 1560.29C500.08 1604.03 441.77 1622.28 401.32 1629.89C367 1636.34 339.3 1636.46 328.45 1636.17C310.53 1605.21 316.96 1559.97 319.53 1546.05C325.69 1542.72 338.2 1536.07 351.75 1529.6C386.57 1512.97 395.78 1512.9 397.27 1513.06C414.68 1514.87 438.24 1522.66 438.58 1522.77C438.58 1522.77 426.2 1505.36 411.25 1497.19C408.14 1485.31 408.87 1469.58 408.87 1469.58C401.84 1476.17 396.87 1486.95 394.43 1493.13C386.75 1493.74 372.69 1497.43 343.13 1511.54C323.51 1520.91 306.51 1530.36 305.79 1530.76C303.34 1532.12 301.58 1534.45 300.93 1537.18C300.25 1540.04 284.6 1607.73 314.53 1651.57C316.25 1654.09 319.03 1655.69 322.07 1655.9C322.58 1655.94 327.31 1656.26 335.31 1656.26C349.64 1656.26 374.46 1655.22 404.4 1649.64C447.58 1641.59 509.9 1622.12 561.57 1575.06C613.26 1527.98 634.79 1479.61 643.76 1447.33C653.6 1411.89 650.96 1387.57 650.85 1386.55Z" fill="#173485"/>
<path d="M378.46 916.48L338.13 951.91L326.25 938.39L371.29 898.82L370.78 897.56L311.11 895.42C319.05 932.16 335.9 985.52 371.19 1032.42L395.48 958.5L378.46 916.48ZM380.01 978.03C379.59 979.42 377.68 979.57 377.04 978.26C373 969.94 363.58 949.7 364.07 943.08C364.09 942.76 364.24 942.47 364.45 942.23L370.56 935.12C372.35 933.05 375.69 933.6 376.71 936.14L385.63 958.38C385.77 958.72 385.78 959.09 385.68 959.44L380.01 978.03Z" fill="#B2B4CD"/>
<path d="M513.411 902.66L512.811 903.88L554.901 946.58L542.081 959.22L504.391 920.99L484.381 961.68L503.331 1037.15C541.891 992.9 562.521 940.88 573.071 904.81L513.411 902.66ZM501.391 982.72C500.661 983.98 498.771 983.7 498.441 982.28L494.121 963.34C494.041 962.98 494.081 962.61 494.241 962.28L504.731 940.74C505.931 938.28 509.311 937.96 510.941 940.16L516.531 947.69C516.721 947.95 516.841 948.25 516.841 948.57C516.861 955.2 506.011 974.71 501.391 982.72Z" fill="#B2B4CD"/>
<path d="M504.39 920.99L491 907.41L470.03 950.08C463.19 948.47 452.38 946.42 440.45 945.99C428.52 945.56 417.58 946.84 410.65 947.95L392.78 903.89L378.46 916.47L395.49 958.48L371.2 1032.4L369.11 1038.76L434.54 1110.71L504.96 1043.63L503.33 1037.14L484.38 961.67L504.39 920.99ZM484.95 1037.84L435.47 1084.98L389.48 1034.42L411.99 965.98C417.87 964.97 428.43 963.57 439.81 963.98C451.19 964.39 461.62 966.54 467.41 967.97L484.95 1037.84Z" fill="#530500"/>
<path d="M370.79 897.55L371.3 898.81L372.66 897.61L370.79 897.55Z" fill="#530500"/>
<path d="M512.81 903.88L513.41 902.66L511.53 902.59L512.81 903.88Z" fill="#530500"/>
<path d="M439.811 963.979C428.431 963.569 417.87 964.969 411.99 965.979L389.48 1034.42L435.47 1084.98L484.95 1037.84L467.411 967.969C461.621 966.539 451.191 964.389 439.811 963.979ZM468.62 1026.28C450.99 1043.08 422.98 1042.08 406.6 1024.06C403.77 1020.95 402.831 1016.56 404.151 1012.56L416.61 974.68C418.05 970.31 421.91 967.179 426.48 966.719C430.36 966.329 434.95 966.07 439.74 966.25C444.52 966.42 449.081 967 452.931 967.67C457.461 968.46 461.08 971.859 462.2 976.319L471.911 1014.99C472.911 1019.07 471.67 1023.38 468.62 1026.28Z" fill="#9E0D0D"/>
<path d="M474.54 901.27C477.7 904.42 478.85 909.41 476.66 913.85L468.09 931.29C465.95 935.64 461.22 938.06 456.45 937.25C451.89 936.47 446.52 935.8 440.82 935.6C435.13 935.4 429.72 935.68 425.11 936.13C420.29 936.6 415.75 933.84 413.93 929.36L406.63 911.35C404.77 906.76 406.27 901.87 409.65 898.95L398.87 898.56L392.79 903.9L410.66 947.96C417.59 946.85 428.53 945.57 440.46 946C452.39 946.43 463.21 948.49 470.04 950.09L491.01 907.42L485.33 901.66L474.54 901.27Z" fill="#9E0D0D"/>
<path d="M452.91 967.67C449.06 967 444.51 966.42 439.72 966.25C434.94 966.08 430.35 966.329 426.46 966.719C421.89 967.179 418.03 970.32 416.59 974.68L404.13 1012.56C402.82 1016.55 403.75 1020.95 406.58 1024.06C422.97 1042.08 450.97 1043.08 468.6 1026.28C471.64 1023.38 472.89 1019.07 471.87 1014.99L462.16 976.319C461.07 971.859 457.44 968.45 452.91 967.67ZM445.54 980.11L432.94 979.66C430.13 979.56 427.94 977.2 428.04 974.39C428.14 971.58 430.5 969.39 433.31 969.49L445.91 969.939C448.72 970.039 450.91 972.399 450.81 975.209C450.7 978.009 448.35 980.21 445.54 980.11Z" fill="#C2241E"/>
<path d="M406.63 911.34L413.93 929.35C415.75 933.84 420.3 936.6 425.11 936.12C429.72 935.67 435.12 935.39 440.82 935.59C446.51 935.79 451.88 936.46 456.45 937.24C461.22 938.06 465.96 935.63 468.09 931.28L476.66 913.84C478.84 909.4 477.7 904.41 474.54 901.26L409.65 898.93C406.27 901.86 404.77 906.75 406.63 911.34Z" fill="#C2241E"/>
<path d="M445.901 969.94L433.301 969.49C430.491 969.39 428.131 971.58 428.031 974.39C427.931 977.2 430.121 979.56 432.931 979.66L445.531 980.11C448.341 980.21 450.701 978.02 450.801 975.21C450.901 972.4 448.711 970.04 445.901 969.94Z" fill="#ED5151"/>
<path d="M385.641 958.39L376.721 936.15C375.701 933.61 372.351 933.05 370.571 935.13L364.461 942.24C364.251 942.48 364.111 942.78 364.081 943.09C363.581 949.71 373.011 969.95 377.051 978.27C377.691 979.58 379.591 979.43 380.021 978.04L385.691 959.46C385.791 959.1 385.771 958.72 385.641 958.39Z" fill="white"/>
<path d="M485.33 901.65L491.01 907.41L504.39 920.99L542.08 959.22L554.9 946.58L512.81 903.88L511.53 902.59L485.33 901.65Z" fill="#4A5D6D"/>
<path d="M372.661 897.61L371.301 898.81L326.261 938.38L338.141 951.9L378.461 916.48L392.781 903.9L398.871 898.55L372.661 897.61Z" fill="#4A5D6D"/>
<path d="M510.94 940.16C509.31 937.96 505.93 938.28 504.73 940.74L494.24 962.28C494.08 962.61 494.04 962.98 494.12 963.34L498.44 982.28C498.76 983.7 500.66 983.98 501.39 982.72C506.01 974.71 516.86 955.2 516.84 948.56C516.84 948.24 516.72 947.94 516.53 947.68L510.94 940.16Z" fill="white"/>
<path d="M321.001 998.38C290.861 989.5 270.851 973.84 261.531 951.82C248.391 920.78 258.631 883.38 266.391 862.88C269.941 896.54 282.911 971.05 329.051 997.36C329.051 997.37 325.721 998.03 321.001 998.38Z" fill="#1278CC"/>
<path d="M355.261 1009.34C327.031 970.37 301.551 918.49 298.561 856.04L301.291 847.85C305.261 867.15 312.541 898.35 324.091 933.18C333.521 961.61 343.921 987.02 355.261 1009.34Z" fill="#88CCFF"/>
<path d="M423.77 1097.52C421.82 1100.92 419.8 1104.54 417.74 1108.37C346.61 1083.57 315.77 1053.92 302.4 1032.98C293.38 1018.85 291.04 1007.05 290.59 999.93C296.77 1000.26 303.12 1000.04 308.42 999.68C314.5 1009.17 348.5 1058.94 405.42 1081.8C410.53 1086.98 415.75 1091.71 421.11 1096C421.93 1096.65 422.83 1097.15 423.77 1097.52Z" fill="#1278CC"/>
<path d="M587.19 876.189C575.54 937.659 543.06 985.529 509.65 1020.2C524.02 999.659 537.87 975.929 551.18 949.029C567.46 916.129 579.01 886.259 585.62 867.689L587.19 876.189Z" fill="#88CCFF"/>
<path d="M610.541 976.2C598.251 996.7 576.271 1009.43 545.191 1014.04H545.181C540.561 1013.04 537.351 1011.92 537.351 1011.92C586.701 992.28 609.901 920.29 618.101 887.45C622.931 908.83 627.871 947.29 610.541 976.2Z" fill="#1278CC"/>
<path d="M392.11 1388.05C324.09 1411.19 256.85 1396.43 211.5 1379.38C172.07 1364.56 142.13 1345.59 129.63 1337.04C137.12 1319.56 155.23 1273.65 168.26 1211.27C177.93 1164.99 182.73 1119.29 182.53 1075.42C182.46 1059.76 181.74 1044.32 180.4 1029.14C177.65 998.14 172.26 968.2 164.25 939.63C162.98 935.06 161.63 930.53 160.22 926.03C170.99 915.79 201.73 888.24 244.62 864.27V864.28C236.52 888.65 229 926.15 243.09 959.54C248.79 973.05 257.45 984.61 269 994.14C269.47 994.53 270 994.91 270.57 995.25C269.89 1015.98 279.07 1080.42 408.57 1126.33C402.3 1139.3 395.99 1153.87 390.29 1169.7C376.98 1206.75 369.89 1243.02 369.24 1277.49C368.48 1316.94 376.17 1354.07 392.11 1388.05Z" fill="#3E9CF3"/>
<path d="M666.86 1246.08C663.72 1198.91 665.31 1152.99 671.61 1109.57C674.47 1089.88 678.29 1070.69 683.07 1052.06C690.97 1021.32 701.46 992.1 714.47 964.73C705.23 953.09 678.61 921.54 639.47 891.83C644.11 917.08 646.35 955.28 627.75 986.4C620.22 998.99 610.05 1009.23 597.28 1017.06C596.75 1017.39 596.17 1017.68 595.56 1017.95C593.76 1034.24 582.02 1076.88 510.53 1107.54C440.44 1137.6 413.96 1169.58 404.11 1191.23C381.21 1263.82 384.38 1329.37 413.55 1386.31C479.67 1422.78 551.64 1417.52 600.65 1406.54C641.76 1397.34 674.05 1382.73 687.61 1375.99C682.64 1357.65 671.09 1309.67 666.86 1246.08ZM431.14 1326.81C419.79 1326.02 411.22 1316.18 412.02 1304.82C412.81 1293.46 422.66 1284.9 434.02 1285.7C445.37 1286.49 453.94 1296.33 453.14 1307.7C452.34 1319.04 442.49 1327.6 431.14 1326.81Z" fill="#3E9CF3"/>
<path d="M537.35 1011.92C537.35 1011.92 540.56 1013.04 545.18 1014.04C545.17 1014.05 545.16 1014.05 545.15 1014.05C545.15 1014.05 550.28 1015.56 557.46 1017.06C557.34 1017.2 557.2 1017.36 557.05 1017.54C556.91 1017.7 556.76 1017.87 556.59 1018.06C556.22 1018.49 555.77 1019 555.25 1019.57C546.34 1029.43 520.48 1055.69 483.14 1073.1C462.32 1082.79 445.38 1099.18 434.56 1119.44C433.8 1120.86 433.04 1122.32 432.26 1123.8C426.11 1126.83 420.11 1129.26 414.36 1130.91C417.07 1126.87 460.87 1076.44 461.81 1075.15C478.28 1060.58 494.25 1042.25 509.64 1020.21L509.65 1020.2C543.06 985.53 575.54 937.66 587.19 876.19L585.62 867.69C586.73 864.57 587.71 861.77 588.54 859.33C597.64 864.07 606.36 869.18 614.67 874.5C615.52 877.27 616.81 881.76 618.1 887.45C609.9 920.29 586.69 992.28 537.35 1011.92Z" fill="#3E9CF3"/>
<path d="M575.05 1019.79C574.15 1024.12 572.29 1030.13 568.47 1037.04C560.58 1051.32 542.75 1071.96 502.65 1089.16C472.43 1102.12 447.57 1116.39 428.15 1131.87C429.53 1129.1 430.9 1126.41 432.25 1123.8C433.03 1122.32 433.79 1120.86 434.55 1119.44C445.37 1099.18 462.31 1082.79 483.13 1073.1C520.47 1055.69 546.34 1029.44 555.24 1019.57C555.76 1018.99 556.21 1018.48 556.58 1018.06C556.74 1017.88 556.9 1017.7 557.04 1017.54C557.19 1017.36 557.33 1017.2 557.45 1017.06C562.63 1018.16 568.89 1019.26 575.05 1019.79Z" fill="#1278CC"/>
<path d="M405.43 1081.79C348.5 1058.93 314.51 1009.16 308.43 999.67C315.75 999.17 321.04 998.4 321.04 998.4C321.03 998.4 321.02 998.4 321.01 998.39C325.73 998.04 329.06 997.38 329.06 997.38C282.92 971.07 269.95 896.56 266.4 862.9C268.47 857.44 270.37 853.17 271.59 850.55C280.56 846.43 289.9 842.59 299.57 839.16C300.05 841.7 300.63 844.61 301.3 847.85L298.57 856.04C301.56 918.49 327.03 970.37 355.27 1009.34C370.36 1039.05 387.12 1063.26 405.43 1081.79Z" fill="#3E9CF3"/>
<path d="M321.001 998.38C321.011 998.39 321.021 998.39 321.031 998.39C321.031 998.39 315.741 999.16 308.421 999.66C307.761 998.63 307.431 998.08 307.431 998.08C312.151 998.78 317.061 998.69 321.001 998.38Z" stroke="#1278CC" stroke-miterlimit="10"/>
<path d="M509.641 1020.21C494.251 1042.25 478.281 1060.58 461.811 1075.15C460.871 1076.44 458.891 1079.2 456.181 1083.24C448.641 1085.42 440.77 1087.13 432.62 1088.23C434.89 1089.9 436.161 1090.76 436.161 1090.76C433.161 1090.21 430.22 1089.56 427.32 1088.85C424.35 1089.15 421.35 1089.39 418.3 1089.51C418.3 1089.51 419.68 1088.83 422.16 1087.49C416.38 1085.86 410.8 1083.95 405.43 1081.78C387.13 1063.25 370.361 1039.04 355.271 1009.33C382.921 1047.49 413.22 1073.27 427.63 1084.44C443.45 1075.4 476.981 1054.11 509.641 1020.21Z" stroke="#1278CC" stroke-miterlimit="10"/>
<path d="M558.66 1015.63C558.66 1015.63 558.25 1016.13 557.46 1017.06C550.28 1015.56 545.15 1014.05 545.15 1014.05C545.16 1014.05 545.17 1014.05 545.18 1014.04H545.19C549.05 1014.89 553.89 1015.66 558.66 1015.63Z" stroke="#1278CC" stroke-miterlimit="10"/>
<path d="M434.34 1333.45C447.308 1333.45 457.82 1322.94 457.82 1309.97C457.82 1297 447.308 1286.49 434.34 1286.49C421.373 1286.49 410.86 1297 410.86 1309.97C410.86 1322.94 421.373 1333.45 434.34 1333.45Z" fill="#1278CC"/>
<path d="M369.23 1277.48C368.48 1316.93 376.17 1354.07 392.11 1388.04C324.09 1411.18 256.85 1396.42 211.5 1379.37C172.07 1364.55 142.13 1345.58 129.63 1337.03C137.12 1319.55 155.23 1273.64 168.26 1211.26C177.93 1164.98 182.73 1119.28 182.53 1075.41C182.46 1059.75 181.74 1044.31 180.4 1029.13C214.05 1167.38 168.67 1323.91 168.67 1323.91C245.53 1374.78 346.51 1355.55 346.51 1355.55C323.22 1262.13 389.88 1131.86 389.88 1131.86C259.47 1093.72 258.96 1002.69 258.96 1002.69C197.97 946.34 243.81 865.67 244.61 864.26C236.51 888.63 228.99 926.13 243.08 959.52C248.78 973.03 257.44 984.59 268.99 994.12C269.46 994.51 269.99 994.89 270.56 995.23C269.88 1015.96 279.06 1080.4 408.56 1126.31C402.29 1139.28 395.98 1153.85 390.28 1169.68C376.96 1206.75 369.88 1243.01 369.23 1277.48Z" fill="#1278CC"/>
<path d="M687.631 1376C674.071 1382.73 641.781 1397.35 600.671 1406.55C551.661 1417.52 479.691 1422.78 413.571 1386.32C384.401 1329.38 381.231 1263.83 404.131 1191.24C413.981 1169.59 440.451 1137.61 510.551 1107.55C582.041 1076.89 593.781 1034.25 595.581 1017.96C596.191 1017.69 596.761 1017.4 597.301 1017.07C610.071 1009.24 620.241 998.99 627.771 986.41C646.361 955.29 644.131 917.09 639.491 891.84C672.491 994.03 602.881 1026.65 602.881 1026.65C586.921 1142.98 442.021 1111.42 414.251 1200.26C381.891 1303.72 438.081 1358.83 438.081 1358.83C528.941 1394.6 650.211 1354.43 650.211 1354.43C633.061 1173.19 683.091 1052.09 683.091 1052.09C678.311 1070.72 674.481 1089.91 671.631 1109.6C665.331 1153.02 663.741 1198.94 666.881 1246.11C671.091 1309.67 682.641 1357.65 687.631 1376Z" fill="#1278CC"/>
<path d="M244.6 864.26C244.6 864.27 194.87 901.41 164.23 939.62C162.96 935.05 161.61 930.52 160.2 926.02C170.98 915.77 201.72 888.23 244.6 864.26Z" fill="#88CCFF"/>
<path d="M639.471 891.819C639.471 891.829 683.551 935.519 708.581 977.619C710.481 973.269 712.441 968.969 714.461 964.709C705.221 953.069 678.611 921.519 639.471 891.819Z" fill="#88CCFF"/>
<path d="M709.04 1378.15C708.87 1377.6 691.91 1322.27 686.78 1244.2C682.06 1172.55 686.62 1066.46 735.14 967.94C736.78 964.62 736.44 960.66 734.26 957.65C731.94 954.44 676.28 878.52 586.9 836.2C584.27 834.95 581.24 834.91 578.57 836.09C575.91 837.27 573.9 839.54 573.05 842.32C572.52 844.09 519.32 1015.79 428.22 1075.85C346.35 1003.71 317.54 826.28 317.25 824.46C316.8 821.59 315.12 819.06 312.64 817.52C310.17 815.98 307.16 815.6 304.38 816.47C209.99 845.96 144.32 913.4 141.57 916.26C139 918.94 138.12 922.81 139.27 926.32C173.62 1030.63 163.4 1136.32 148.76 1206.62C132.82 1283.22 108.34 1335.65 108.1 1336.16C106.09 1340.42 107.33 1345.51 111.07 1348.38C111.42 1348.66 113.7 1350.37 117.63 1353.09L137.01 1365.52C153.17 1375.2 176.16 1387.41 203.87 1397.88C236.24 1410.09 268.32 1417.33 299.26 1419.45C336.51 1421.97 372.15 1416.97 405.25 1404.58C436.31 1421.45 470.9 1431.36 508.15 1434.04L508.76 1434.08C539.51 1436.23 572.09 1433.49 605.61 1425.94C634.5 1419.43 658.96 1410.53 676.32 1403.19L697.24 1393.57C701.51 1391.42 704 1390.04 704.39 1389.82C708.5 1387.52 710.43 1382.65 709.04 1378.15ZM461.81 1075.15C493.64 1047.01 523.6 1004.77 551.18 949.03C570.19 910.61 582.75 876.31 588.54 859.33C597.64 864.07 606.36 869.18 614.67 874.5C618.72 887.67 632.48 939.59 610.54 976.2C598.25 996.71 576.25 1009.44 545.14 1014.06C545.14 1014.06 560.36 1018.52 575.04 1019.79C574.14 1024.12 572.28 1030.13 568.46 1037.05C560.57 1051.32 542.75 1071.96 502.64 1089.16C472.42 1102.12 447.56 1116.39 428.14 1131.87C443.65 1100.6 458.62 1079.52 461.81 1075.15ZM271.58 850.54C280.55 846.42 289.89 842.58 299.56 839.15C302.93 856.77 310.6 892.48 324.09 933.17C349.57 1010.04 382.21 1064.82 421.11 1095.99C421.93 1096.65 422.82 1097.16 423.76 1097.52C421.81 1100.92 419.79 1104.54 417.73 1108.37C346.6 1083.57 315.76 1053.92 302.39 1032.98C293.37 1018.85 291.03 1007.05 290.58 999.93C305.3 1000.72 321.02 998.42 321.02 998.42C290.86 989.53 270.84 973.86 261.52 951.84C244.9 912.52 265.74 863.02 271.58 850.54ZM211.49 1379.37C172.06 1364.55 142.12 1345.58 129.62 1337.04C137.11 1319.55 155.22 1273.64 168.25 1211.26C177.92 1164.98 182.72 1119.28 182.52 1075.41C182.28 1022.67 174.78 972.44 160.2 926.02C170.97 915.77 201.71 888.22 244.61 864.24C236.5 888.6 228.98 926.12 243.07 959.52C248.77 973.03 257.43 984.59 268.98 994.12C269.45 994.52 269.98 994.89 270.54 995.23C269.87 1015.96 279.05 1080.4 408.55 1126.32C402.28 1139.28 395.97 1153.85 390.27 1169.68C376.96 1206.73 369.87 1243 369.22 1277.48C368.47 1316.92 376.16 1354.06 392.1 1388.03C324.09 1411.18 256.85 1396.42 211.49 1379.37ZM600.67 1406.55C551.66 1417.52 479.69 1422.78 413.56 1386.33C384.39 1329.38 381.22 1263.83 404.12 1191.24C413.97 1169.6 440.44 1137.61 510.54 1107.55C582.03 1076.89 593.77 1034.26 595.57 1017.96C596.18 1017.69 596.75 1017.4 597.29 1017.07C610.05 1009.24 620.24 998.99 627.76 986.41C646.35 955.29 644.12 917.09 639.48 891.84C678.63 921.55 705.24 953.1 714.48 964.75C693.6 1008.69 679.18 1057.39 671.62 1109.59C665.32 1153.01 663.73 1198.93 666.87 1246.1C671.1 1309.69 682.66 1357.67 687.64 1376.02C674.06 1382.74 641.78 1397.35 600.67 1406.55Z" fill="#173485"/>
<path d="M453.209 1307.7C454.002 1296.34 445.44 1286.49 434.085 1285.7C422.73 1284.91 412.881 1293.47 412.088 1304.82C411.295 1316.18 419.857 1326.03 431.212 1326.82C442.567 1327.61 452.416 1319.05 453.209 1307.7Z" fill="#173485"/>
<path d="M703.13 1269.95H691.39C672.72 1269.95 657.52 1285.14 657.52 1303.82V1681.04C657.52 1699.71 672.72 1714.91 691.39 1714.91H703.13C721.81 1714.91 737 1699.71 737 1681.04V1303.82C737 1285.14 721.81 1269.95 703.13 1269.95ZM717 1681.04C717 1688.68 710.78 1694.91 703.13 1694.91H691.39C683.74 1694.91 677.52 1688.68 677.52 1681.04V1303.82C677.52 1296.17 683.74 1289.95 691.39 1289.95H703.13C710.78 1289.95 717 1296.17 717 1303.82V1681.04Z" fill="#561F09"/>
<path d="M717 1303.82V1681.04C717 1688.68 710.78 1694.91 703.13 1694.91H691.39C683.74 1694.91 677.52 1688.68 677.52 1681.04V1303.82C677.52 1296.17 683.74 1289.95 691.39 1289.95H703.13C710.78 1289.95 717 1296.17 717 1303.82Z" fill="#B5653C"/>
<path d="M712.81 1343.03V1618.32C712.81 1623.9 707.91 1628.44 701.89 1628.44H692.64C686.61 1628.44 681.72 1623.89 681.72 1618.32V1343.03C681.72 1337.45 686.62 1332.91 692.64 1332.91H701.89C707.91 1332.91 712.81 1337.45 712.81 1343.03Z" fill="#E2865D"/>
<path d="M892.52 1304.22H502C492.28 1304.22 484.39 1296.34 484.39 1286.61V1054.18C484.39 1044.46 492.27 1036.57 502 1036.57H892.52C902.24 1036.57 910.13 1044.45 910.13 1054.18V1286.61C910.13 1296.33 902.25 1304.22 892.52 1304.22Z" fill="#BDBDBD"/>
<path d="M884.549 1268.94H509.979C500.249 1268.94 492.369 1261.06 492.369 1251.33V1059.91C492.369 1050.19 500.249 1042.3 509.979 1042.3H884.549C894.269 1042.3 902.159 1050.18 902.159 1059.91V1251.33C902.159 1261.06 894.269 1268.94 884.549 1268.94Z" fill="white"/>
<path d="M892.52 1314.22H502C486.78 1314.22 474.39 1301.84 474.39 1286.61V1054.18C474.39 1038.96 486.77 1026.57 502 1026.57H892.52C907.74 1026.57 920.13 1038.96 920.13 1054.18V1286.61C920.13 1301.83 907.75 1314.22 892.52 1314.22ZM502 1046.56C497.8 1046.56 494.39 1049.97 494.39 1054.17V1286.6C494.39 1290.8 497.8 1294.21 502 1294.21H892.52C896.72 1294.21 900.13 1290.8 900.13 1286.6V1054.17C900.13 1049.97 896.72 1046.56 892.52 1046.56H502Z" fill="#141A1E"/>
<path d="M700.75 1111.15V1133.47C700.75 1138.54 700.47 1142.23 699.92 1144.55C699.37 1146.86 698.23 1149.03 696.49 1151.04C694.75 1153.05 692.66 1154.5 690.21 1155.38C687.76 1156.26 685.02 1156.7 681.98 1156.7C677.98 1156.7 674.66 1156.24 672.02 1155.32C669.37 1154.4 667.27 1152.96 665.7 1151C664.13 1149.04 663.01 1146.99 662.35 1144.82C661.69 1142.66 661.36 1139.22 661.36 1134.51V1111.16C661.36 1105.02 661.89 1100.41 662.95 1097.36C664.01 1094.3 666.12 1091.85 669.27 1090C672.42 1088.15 676.25 1087.23 680.74 1087.23C684.4 1087.23 687.68 1087.87 690.58 1089.15C693.47 1090.43 695.64 1092 697.07 1093.84C698.5 1095.69 699.47 1097.77 699.98 1100.08C700.49 1102.39 700.75 1106.08 700.75 1111.15ZM684.05 1105.52C684.05 1101.97 683.88 1099.74 683.53 1098.85C683.19 1097.96 682.38 1097.51 681.11 1097.51C679.87 1097.51 679.05 1097.98 678.65 1098.94C678.25 1099.89 678.05 1102.09 678.05 1105.53V1138.18C678.05 1142.07 678.24 1144.41 678.61 1145.21C678.98 1146.01 679.79 1146.41 681.03 1146.41C682.27 1146.41 683.08 1145.94 683.47 1145C683.86 1144.06 684.05 1141.96 684.05 1138.68V1105.52Z" fill="#141A1E"/>
<path d="M729.89 1099.9V1111.39C729.89 1114.39 729.61 1116.65 729.04 1118.15C728.47 1119.65 727.26 1120.96 725.4 1122.08C723.54 1123.2 721.08 1123.75 718.02 1123.75C714.49 1123.75 711.81 1123.22 709.96 1122.16C708.11 1121.1 706.87 1119.83 706.22 1118.34C705.57 1116.85 705.25 1114.72 705.25 1111.93V1099.9C705.25 1096.59 705.59 1094.15 706.26 1092.56C706.93 1090.98 708.24 1089.69 710.17 1088.7C712.1 1087.71 714.48 1087.21 717.32 1087.21C720.46 1087.21 723.01 1087.75 724.97 1088.84C726.93 1089.93 728.23 1091.24 728.9 1092.79C729.57 1094.34 729.89 1096.71 729.89 1099.9ZM719.31 1096.97C719.31 1095.21 719.22 1094.12 719.04 1093.71C718.86 1093.3 718.37 1093.09 717.57 1093.09C716.83 1093.09 716.34 1093.31 716.12 1093.75C715.9 1094.19 715.79 1095.27 715.79 1096.97V1113.83C715.79 1115.76 715.89 1116.92 716.08 1117.3C716.27 1117.69 716.78 1117.88 717.61 1117.88C718.33 1117.88 718.79 1117.66 718.99 1117.22C719.19 1116.78 719.3 1115.75 719.3 1114.12V1096.97H719.31ZM749.36 1087.21L723.2 1156.69H716.83L743.08 1087.21H749.36ZM760.93 1132.22V1143.75C760.93 1146.73 760.65 1148.97 760.08 1150.49C759.51 1152.01 758.3 1153.32 756.44 1154.44C754.58 1155.56 752.12 1156.11 749.06 1156.11C745.56 1156.11 742.88 1155.57 741.02 1154.5C739.16 1153.43 737.91 1152.14 737.26 1150.66C736.61 1149.17 736.29 1147.05 736.29 1144.29V1132.22C736.29 1128.94 736.63 1126.51 737.3 1124.93C737.97 1123.35 739.28 1122.05 741.21 1121.05C743.14 1120.04 745.52 1119.54 748.36 1119.54C751.53 1119.54 754.09 1120.09 756.05 1121.19C758.01 1122.29 759.31 1123.61 759.96 1125.16C760.61 1126.71 760.93 1129.06 760.93 1132.22ZM750.35 1129.33C750.35 1127.57 750.26 1126.47 750.08 1126.04C749.9 1125.61 749.41 1125.4 748.61 1125.4C747.87 1125.4 747.39 1125.62 747.18 1126.06C746.97 1126.5 746.87 1127.59 746.87 1129.32V1146.18C746.87 1148.08 746.97 1149.22 747.16 1149.61C747.35 1150 747.85 1150.19 748.65 1150.19C749.39 1150.19 749.86 1149.98 750.06 1149.55C750.25 1149.12 750.35 1148.08 750.35 1146.43V1129.33Z" fill="#141A1E"/>
<path d="M581.84 1167.32H599.2C604.68 1167.32 608.84 1167.75 611.66 1168.6C614.48 1169.45 616.76 1171.18 618.5 1173.78C620.24 1176.38 621.1 1180.57 621.1 1186.36C621.1 1190.27 620.49 1193 619.26 1194.54C618.03 1196.08 615.62 1197.27 612.01 1198.09C616.03 1199 618.76 1200.51 620.19 1202.62C621.62 1204.73 622.34 1207.96 622.34 1212.32V1218.52C622.34 1223.04 621.82 1226.39 620.79 1228.57C619.76 1230.75 618.11 1232.24 615.85 1233.04C613.59 1233.84 608.96 1234.24 601.96 1234.24H581.83V1167.32H581.84ZM599.24 1178.77V1193.65C599.98 1193.62 600.56 1193.61 600.98 1193.61C602.69 1193.61 603.78 1193.19 604.24 1192.35C604.7 1191.51 604.94 1189.1 604.94 1185.14C604.94 1183.05 604.75 1181.58 604.36 1180.74C603.97 1179.9 603.47 1179.37 602.85 1179.15C602.23 1178.93 601.03 1178.8 599.24 1178.77ZM599.24 1204.07V1222.79C601.69 1222.71 603.26 1222.32 603.93 1221.63C604.6 1220.94 604.94 1219.25 604.94 1216.55V1210.31C604.94 1207.44 604.64 1205.71 604.03 1205.1C603.43 1204.49 601.83 1204.15 599.24 1204.07Z" fill="#141A1E"/>
<path d="M666.32 1179.39V1234.24H649.33L649.62 1229.68C648.46 1231.53 647.04 1232.92 645.34 1233.84C643.64 1234.76 641.7 1235.23 639.49 1235.23C636.98 1235.23 634.9 1234.79 633.25 1233.91C631.6 1233.03 630.38 1231.86 629.59 1230.4C628.8 1228.94 628.32 1227.42 628.12 1225.83C627.93 1224.25 627.83 1221.1 627.83 1216.39V1179.4H644.53V1216.72C644.53 1220.99 644.66 1223.53 644.92 1224.33C645.18 1225.13 645.89 1225.53 647.05 1225.53C648.29 1225.53 649.03 1225.12 649.26 1224.29C649.49 1223.46 649.61 1220.8 649.61 1216.31V1179.4H666.32V1179.39Z" fill="#141A1E"/>
<path d="M707.27 1179.39L702.5 1219.07C701.75 1225.35 701.11 1229.64 700.6 1231.92C700.09 1234.2 699.24 1236.09 698.06 1237.58C696.88 1239.07 695.23 1240.16 693.12 1240.87C691.01 1241.57 687.64 1241.92 683.02 1241.92H672.9V1233.16C675.49 1233.16 677.16 1233.03 677.91 1232.77C678.66 1232.51 679.03 1231.92 679.03 1231.01C679.03 1230.57 678.69 1228.65 678 1225.26L668.86 1179.38H684L689.49 1216.41L692.17 1179.38H707.27V1179.39Z" fill="#141A1E"/>
<path d="M725.67 1167.32H755.14V1180.71H743.07V1193.4H753.82V1206.13H743.07V1234.24H725.67V1167.32Z" fill="#141A1E"/>
<path d="M796.68 1207.79H775.06V1219.65C775.06 1222.13 775.24 1223.73 775.6 1224.44C775.96 1225.16 776.65 1225.52 777.67 1225.52C778.94 1225.52 779.78 1225.04 780.21 1224.09C780.64 1223.14 780.85 1221.3 780.85 1218.57V1211.34H796.68V1215.39C796.68 1218.78 796.47 1221.38 796.04 1223.2C795.61 1225.02 794.61 1226.96 793.04 1229.03C791.47 1231.1 789.48 1232.65 787.07 1233.68C784.66 1234.71 781.63 1235.23 778 1235.23C774.47 1235.23 771.36 1234.72 768.66 1233.7C765.96 1232.68 763.86 1231.28 762.36 1229.5C760.86 1227.72 759.82 1225.77 759.24 1223.63C758.66 1221.5 758.37 1218.39 758.37 1214.31V1198.31C758.37 1193.52 759.02 1189.73 760.31 1186.97C761.6 1184.2 763.73 1182.08 766.67 1180.6C769.62 1179.13 773.01 1178.39 776.84 1178.39C781.52 1178.39 785.39 1179.28 788.43 1181.06C791.47 1182.84 793.61 1185.19 794.84 1188.13C796.07 1191.06 796.68 1195.19 796.68 1200.51V1207.79ZM779.94 1198.86V1194.85C779.94 1192.01 779.79 1190.18 779.48 1189.35C779.18 1188.52 778.56 1188.11 777.62 1188.11C776.46 1188.11 775.75 1188.46 775.47 1189.16C775.19 1189.86 775.06 1191.76 775.06 1194.84V1198.85H779.94V1198.86Z" fill="#141A1E"/>
<path d="M839.96 1207.79H818.34V1219.65C818.34 1222.13 818.52 1223.73 818.88 1224.44C819.24 1225.16 819.93 1225.52 820.95 1225.52C822.22 1225.52 823.06 1225.04 823.49 1224.09C823.92 1223.14 824.13 1221.3 824.13 1218.57V1211.34H839.96V1215.39C839.96 1218.78 839.75 1221.38 839.32 1223.2C838.89 1225.02 837.89 1226.96 836.32 1229.03C834.75 1231.1 832.76 1232.65 830.35 1233.68C827.94 1234.71 824.91 1235.23 821.28 1235.23C817.75 1235.23 814.64 1234.72 811.94 1233.7C809.24 1232.68 807.14 1231.28 805.64 1229.5C804.14 1227.72 803.1 1225.77 802.52 1223.63C801.94 1221.5 801.65 1218.39 801.65 1214.31V1198.31C801.65 1193.52 802.3 1189.73 803.59 1186.97C804.88 1184.2 807.01 1182.08 809.95 1180.6C812.9 1179.13 816.29 1178.39 820.12 1178.39C824.8 1178.39 828.67 1179.28 831.71 1181.06C834.75 1182.84 836.89 1185.19 838.12 1188.13C839.35 1191.06 839.96 1195.19 839.96 1200.51V1207.79ZM823.22 1198.86V1194.85C823.22 1192.01 823.07 1190.18 822.76 1189.35C822.46 1188.52 821.84 1188.11 820.9 1188.11C819.74 1188.11 819.03 1188.46 818.75 1189.16C818.47 1189.86 818.34 1191.76 818.34 1194.84V1198.85H823.22V1198.86Z" fill="#141A1E"/>
<path d="M170.61 1214.79C165.02 1250.9 150.43 1296.04 125.96 1301.35C88.6498 1309.43 70.6498 1284.39 70.6498 1284.39C38.2998 1284.65 21.3498 1260.13 26.8298 1236.91C32.2998 1213.7 61.5198 1221.78 61.5198 1221.78C55.2598 1198.3 76.3898 1169.35 76.3898 1169.35C76.3898 1169.35 156.91 1154.22 170.46 1169.47C171.26 1170.37 171.83 1171.37 172.13 1172.48C174.02 1179.39 173.55 1195.85 170.61 1214.79Z" fill="white"/>
<path d="M165.87 1221.26C167.45 1218.72 169.04 1216.58 170.61 1214.79C165.02 1250.9 150.43 1296.04 125.96 1301.35C88.6498 1309.43 70.6498 1284.39 70.6498 1284.39C38.2998 1284.65 21.3498 1260.13 26.8298 1236.91C32.2998 1213.7 61.5198 1221.78 61.5198 1221.78C55.2598 1198.3 76.3898 1169.35 76.3898 1169.35C76.3898 1169.35 156.91 1154.22 170.46 1169.47L171.09 1196.22L159.8 1195.96C159.8 1195.96 120.09 1207.89 88.7798 1203C88.7798 1203 82.1298 1203.78 79.3898 1216.3C76.6498 1228.83 72.1498 1230.78 72.1498 1230.78L54.7398 1221.39L43.3898 1227.75C43.3898 1227.75 37.7198 1246.92 55.5198 1243.99L64.6398 1233.93C64.2098 1234.6 53.3198 1252.03 67.6498 1258.3C82.2598 1264.7 110.17 1253.09 121 1240.17C121 1240.17 119.7 1253.22 113.96 1259.22C113.96 1259.22 141.61 1260.13 165.87 1221.26Z" fill="#BDBDBD"/>
<path d="M180.81 1170.11C177.09 1156.48 158.81 1151.63 121.54 1154.4C98.0595 1156.15 75.6695 1160.32 74.7295 1160.5C72.4795 1160.92 70.4695 1162.19 69.1195 1164.04C68.2995 1165.16 51.9496 1187.88 51.3996 1211.41C45.2896 1211.31 37.8795 1212.25 31.3695 1216.1C24.6195 1220.1 20.0195 1226.58 18.0695 1234.84C14.7795 1248.77 17.9895 1263.14 26.8595 1274.26C36.0395 1285.76 49.9896 1292.43 66.4596 1293.29C72.5196 1299.64 87.3495 1311.97 111.36 1311.97C116.45 1311.97 121.95 1311.42 127.86 1310.13C138.89 1307.74 148.71 1299.56 157.05 1285.8C177.94 1251.41 185.68 1187.96 180.81 1170.11ZM141.67 1276.48C137.76 1282.92 131.53 1290.93 124.05 1292.55C105.93 1296.48 93.3595 1291.37 85.9695 1286.37C91.7195 1283.94 102.6 1277.24 107.86 1260.13C107.86 1260.13 83.1295 1283.21 49.4095 1270.28C46.1195 1268.37 43.2495 1265.95 40.9295 1263.04C35.5195 1256.27 33.5796 1247.5 35.5896 1238.98C36.6796 1234.36 38.9195 1232.56 40.4995 1231.61C42.4895 1230.42 45.4495 1229.94 48.5095 1229.83C53.6895 1229.64 57.3995 1234.79 55.4095 1239.58C52.8995 1245.63 52.2895 1251.62 52.2895 1251.62C57.2795 1238.71 81.1496 1229.8 81.1496 1229.8C81.1496 1229.8 76.1095 1225.42 68.9095 1226.87C70.3895 1224.73 70.8996 1222.02 70.2096 1219.45C66.4796 1205.45 75.9195 1186.57 81.6895 1177.53C88.3895 1176.38 103.4 1173.99 119.14 1172.64C154.25 1169.63 162.34 1174.36 163.55 1175.28C166.68 1188.63 160.09 1246.13 141.67 1276.48Z" fill="#4A5D6D"/>
<path d="M236.7 1046.87L242.17 1142.74L183.76 1252.16C203.21 1169.46 182.52 1075.41 182.52 1075.41C182.52 1075.41 177.7 1033.16 157.7 1006.95C157.71 1006.97 157.71 1006.98 157.71 1007C157.75 1007.22 157.92 1008.22 158.19 1009.86C158.19 1009.87 158.2 1009.89 158.2 1009.9C159.12 1015.53 161.14 1028.64 162.61 1043.87C164.57 1064.22 163.78 1086.39 163.78 1086.39L154.91 1091.61L158.83 1176.39L61.3901 1183.43C61.3901 1183.43 8.19005 1100.98 17.57 1025.69C18.98 1014.34 22.08 1003.83 26.41 994.11C27.82 990.97 29.35 987.9 30.99 984.92C57.92 936.01 115.15 909.1 133 898C155.3 884.13 246.48 847.59 246.48 847.59L240.63 877.77L233.7 887.35L202.4 930.64L211.26 973.76L236.7 1046.87Z" fill="#3E9CF3"/>
<path d="M163.78 1086.39L154.91 1091.61L158.83 1176.39L61.3901 1183.43C61.3901 1183.43 8.19005 1100.98 17.57 1025.69C19.44 1010.67 24.27 997.11 30.99 984.92C31.17 988.84 30.7601 993.3 29.6501 998.38C15.9101 1061.42 48.1501 1145.99 83.7001 1154.87C119.24 1163.75 143.56 1146.65 143.56 1146.65C155.68 1115.74 128.37 1053.33 128.37 1053.33C161.1 1050.61 159.53 1019.68 158.2 1009.9C159.12 1015.53 161.14 1028.64 162.61 1043.87C164.57 1064.22 163.78 1086.39 163.78 1086.39Z" fill="#1278CC"/>
<path d="M246.48 847.59L240.63 877.77L233.7 887.35C75.4202 928.18 29.6502 998.38 29.6502 998.38C29.6502 998.38 28.4702 996.85 26.4102 994.11C27.8202 990.97 29.3502 987.9 30.9902 984.92C57.9202 936.01 115.15 909.1 133 898C155.3 884.13 246.48 847.59 246.48 847.59Z" fill="#88CCFF"/>
<path d="M168.61 1093.83L171.74 1072.9L149.84 1076.19C138.32 1060.06 127.13 1051.86 127.13 1051.86C127.5 1052.45 162.9 1110.08 154.36 1166.72C140.67 1170.65 102.68 1179.39 62.3698 1169.58C52.1698 1154.65 6.7098 1083.06 25.2298 1018.72C45.6298 947.86 136.57 897.8 208.26 876.45L202.55 857.28C178.44 864.46 131.37 881.1 87.0498 911.92C44.0098 941.84 16.7398 975.92 6.00983 1013.18C-3.75017 1047.07 0.529821 1087.49 18.3798 1130.06C31.6598 1161.73 47.6098 1183.39 48.2798 1184.29L50.3498 1187.08L53.7098 1187.98C70.3698 1192.47 86.6598 1194.08 101.44 1194.08C137.73 1194.08 164.97 1184.39 166.55 1183.81L171.81 1181.9L172.93 1176.42C177.78 1144.12 171.7 1117.94 162.56 1098.06L168.61 1093.83Z" fill="#173485"/>
<path d="M656.419 1022.49C656.419 1022.48 656.429 1022.48 656.439 1022.47C665.899 1013.66 664.979 993.7 663.599 982.58C661.419 965.08 655.679 947.61 647.859 934.63C635.699 914.48 618.779 906.39 601.429 912.43C555.769 928.33 523.009 981.59 517.719 1023.9C514.139 1052.56 519.079 1090.6 538.189 1110.98C546.569 1119.92 556.989 1124.6 568.449 1124.6C569.299 1124.6 570.159 1124.57 571.019 1124.52C587.159 1123.55 595.179 1116.43 599.059 1110.63C605.129 1101.56 604.859 1090.77 603.719 1083.71C604.509 1082.98 605.239 1082.2 605.909 1081.4C614.019 1085.01 624.349 1086.04 634.309 1083.89C647.479 1081.05 657.349 1073.07 661.369 1062.01C666.919 1046.75 660.609 1033.74 653.239 1025.43L656.419 1022.49ZM627.739 1046.02C627.739 1046.02 632.979 1042 634.489 1032.73C634.639 1032.85 634.779 1032.97 634.939 1033.07C635.089 1033.17 649.269 1042.63 644.459 1055.85C641.899 1062.88 634.619 1065.41 630.509 1066.3C623.949 1067.71 617.499 1066.84 613.229 1064.96C611.979 1064.39 610.749 1063.58 609.549 1062.58C609.539 1062.57 609.529 1062.56 609.529 1062.55C609.239 1062.26 608.939 1062 608.619 1061.76C596.979 1051.03 588.089 1023.19 588.089 1023.19C580.389 1040 588.639 1059.02 591.199 1064.19C591.749 1065.31 591.619 1066.62 590.869 1067.61C589.999 1068.77 588.779 1069.74 587.799 1070.41C586.779 1071.1 585.499 1071.26 584.329 1070.87C557.939 1062.07 557.569 1030.48 557.569 1030.48C557.569 1030.48 546.409 1057.53 561.089 1072.3C566.949 1078.2 572.629 1081.52 577.319 1083.05C583.809 1085.17 587.509 1092.28 585.089 1098.67C584.819 1099.38 584.489 1100.05 584.079 1100.66C581.709 1104.15 576.959 1106.13 569.939 1106.55C562.769 1106.98 556.699 1104.4 551.319 1098.67C538.429 1084.93 531.959 1055.1 535.579 1026.13C540.089 990.07 568.809 942.85 607.349 929.43C608.419 929.06 610.249 928.42 612.629 928.42C617.179 928.42 623.779 930.75 631.039 941.71C637.839 951.97 643.219 967.29 645.449 982.68C647.789 998.9 645.539 1007.75 644.149 1009.32L633.759 1018.93C633.689 1018.99 633.629 1019.06 633.569 1019.13C629.649 1008.33 618.089 1004.15 618.089 1004.15C631.779 1019.02 627.739 1046.02 627.739 1046.02Z" fill="#4A5D6D"/>
<path d="M644.459 1055.85C641.899 1062.88 634.619 1065.41 630.509 1066.3C623.949 1067.71 617.499 1066.84 613.229 1064.96C611.979 1064.39 610.749 1063.58 609.549 1062.58C609.539 1062.57 609.529 1062.56 609.529 1062.55C609.239 1062.26 608.939 1062 608.619 1061.76C603.719 1057.24 599.309 1049.69 595.839 1042.46C591.069 1032.52 588.089 1023.19 588.089 1023.19C584.699 1030.6 584.399 1038.43 585.349 1045.32C586.549 1054.07 589.769 1061.3 591.199 1064.19C591.749 1065.31 591.619 1066.62 590.869 1067.61C589.999 1068.77 588.779 1069.74 587.799 1070.41C586.779 1071.1 585.499 1071.26 584.329 1070.87C569.629 1065.97 562.999 1053.99 560.009 1044.34V1044.33C557.639 1036.67 557.569 1030.48 557.569 1030.48C557.569 1030.48 547.939 1053.82 558.339 1068.98C559.129 1070.14 560.049 1071.25 561.089 1072.3C566.949 1078.2 572.629 1081.52 577.319 1083.05C583.809 1085.17 587.509 1092.28 585.089 1098.67C584.819 1099.38 584.489 1100.05 584.079 1100.66C581.709 1104.15 576.959 1106.13 569.939 1106.55C562.769 1106.98 556.699 1104.4 551.319 1098.67C546.389 1093.41 542.389 1085.8 539.549 1076.77C534.959 1062.22 533.349 1044.01 535.579 1026.13C540.089 990.07 568.809 942.85 607.349 929.43C608.419 929.06 610.249 928.42 612.629 928.42C614.469 928.42 616.639 928.8 619.069 929.98C622.629 931.72 626.719 935.18 631.039 941.71C637.839 951.97 643.219 967.29 645.449 982.68C647.789 998.9 645.539 1007.75 644.149 1009.32L633.759 1018.93C633.689 1018.99 633.629 1019.06 633.569 1019.13C629.649 1008.33 618.089 1004.15 618.089 1004.15C631.779 1019.02 627.739 1046.02 627.739 1046.02C627.739 1046.02 632.979 1042 634.489 1032.73C634.639 1032.85 634.779 1032.97 634.939 1033.07C635.089 1033.17 649.269 1042.63 644.459 1055.85Z" fill="white"/>
<path d="M585.09 1098.67C584.82 1099.38 584.49 1100.05 584.08 1100.66C581.71 1104.15 576.96 1106.13 569.94 1106.55C562.77 1106.98 556.7 1104.4 551.32 1098.67C546.39 1093.41 542.39 1085.8 539.55 1076.77C543.87 1082.07 549.29 1083.15 553.55 1080.61C556.72 1078.73 557.99 1074.1 558.34 1068.98C559.13 1070.14 560.05 1071.25 561.09 1072.3C566.95 1078.2 572.63 1081.52 577.32 1083.05C583.81 1085.17 587.51 1092.28 585.09 1098.67Z" fill="#BDBDBD"/>
<path d="M591.2 1064.19C591.75 1065.31 591.62 1066.62 590.87 1067.61C590 1068.77 588.78 1069.74 587.8 1070.41C586.78 1071.1 585.5 1071.26 584.33 1070.87C569.63 1065.97 563 1053.99 560.01 1044.34C570.01 1059.09 580.79 1050.32 585.35 1045.32C586.55 1054.07 589.77 1061.3 591.2 1064.19Z" fill="#BDBDBD"/>
<path d="M644.46 1055.85C641.9 1062.88 634.62 1065.41 630.51 1066.3C623.95 1067.71 617.5 1066.84 613.23 1064.96C611.98 1064.39 610.75 1063.58 609.55 1062.58C609.54 1062.57 609.53 1062.56 609.53 1062.55C609.24 1062.26 608.94 1062 608.62 1061.76C603.72 1057.24 599.31 1049.69 595.84 1042.46C595.84 1042.46 612.93 1051.85 619.98 1040.21C627.02 1028.57 614.11 1005 614.11 1005C601 974.28 602.37 935.93 602.37 935.93L619.07 929.979C622.63 931.719 626.72 935.179 631.04 941.709C637.84 951.969 643.22 967.29 645.45 982.68C647.79 998.9 645.54 1007.75 644.15 1009.32L633.76 1018.93C633.69 1018.99 633.63 1019.06 633.57 1019.13C629.65 1008.33 618.09 1004.15 618.09 1004.15C631.78 1019.02 627.74 1046.02 627.74 1046.02C627.74 1046.02 632.98 1042 634.49 1032.73C634.64 1032.85 634.78 1032.97 634.94 1033.07C635.09 1033.17 649.27 1042.63 644.46 1055.85Z" fill="#BDBDBD"/>
<path d="M897.249 920.31C896.589 923.29 895.759 926.28 894.739 929.28C866.039 1013.8 711.609 1049.28 663.089 1020.79C643.459 1009.27 631.049 989.75 623.229 970.59C611.699 942.37 610.129 914.93 610.129 914.93L623.529 901.52C623.059 901.16 622.589 900.8 622.129 900.43C596.099 880.07 579.429 854.67 579.429 854.67C579.429 854.67 555.609 785.8 681.349 776.58C686.439 776.21 691.519 775.98 696.579 775.89C697.009 775.87 697.449 775.87 697.879 775.86C795.059 774.5 882.919 823.66 897.119 885.68C897.339 886.6 897.529 887.52 897.709 888.44C897.709 888.45 897.709 888.45 897.709 888.45C898.099 890.43 898.409 892.41 898.629 894.41C899.599 902.87 899.189 911.54 897.249 920.31Z" fill="#3E9CF3"/>
<path d="M700.159 861.189C671.999 865.559 625.809 898.889 608.299 912.059C603.179 903.149 604.339 884.859 597.679 877.559C586.129 864.889 579.429 854.669 579.429 854.669C579.429 854.669 555.609 785.799 681.349 776.579C686.879 776.179 692.389 775.939 697.879 775.859C714.919 796.139 727.999 811.889 727.999 811.889L711.089 835.629L744.919 857.209L743.429 861.189C743.429 861.189 741.179 854.829 700.159 861.189Z" fill="#1278CC"/>
<path d="M899.14 884.93L898.63 894.41L897.25 920.31C896.59 923.29 895.76 926.28 894.74 929.28C866.04 1013.8 711.609 1049.28 663.089 1020.79C643.459 1009.27 631.049 989.75 623.229 970.59C639.369 977.65 673.369 985.36 743.959 982.5C852.199 978.1 890.269 905.43 897.709 888.45C897.709 888.45 897.709 888.45 897.709 888.44C898.689 886.2 899.14 884.93 899.14 884.93Z" fill="#1278CC"/>
<path d="M743.429 861.189C641.689 866.929 608.299 913.629 608.299 913.629L615.079 940.239C662.039 879.459 768.639 863.369 768.639 863.369L743.429 861.189Z" fill="#88CCFF"/>
<path d="M897.119 885.68C893.569 883.24 888.869 878.26 882.739 870.06C838.219 810.46 722.659 791.94 710.759 790.18C710.099 790.08 709.759 790.03 709.759 790.03L696.579 775.89C697.009 775.87 697.449 775.87 697.879 775.86C795.059 774.5 882.919 823.66 897.119 885.68Z" fill="#88CCFF"/>
<path d="M706.329 1036.48C685.729 1036.48 669.809 1034.85 662.569 1033.95C658.359 1033.43 654.469 1031.74 651.329 1029.07C623.369 1005.32 603.299 947.23 595.969 923.35C593.759 916.15 595.489 908.19 600.489 902.59C607.749 894.46 623.25 877.06 651.65 865.76C712.53 841.52 768.65 863.36 768.65 863.36C671.92 861.17 626.9 903.03 615.41 915.91C615.04 916.32 614.919 916.92 615.089 917.48C626.049 953.17 644.73 997.22 664.28 1013.83C664.44 1013.97 664.73 1014.07 665.05 1014.11C688.25 1017 807.059 1027.98 867.849 959.8C894.029 930.44 888.629 900.24 879.489 880.07C858.009 832.68 787.459 782.75 698.629 782.75C697.949 782.75 697.259 782.75 696.579 782.76L696.41 762.76C739.54 762.37 783.739 773.64 820.979 794.46C856.969 814.58 884.219 842.05 897.719 871.82C914.109 907.97 908.81 943.94 882.79 973.12C834.92 1026.77 756.659 1036.48 706.329 1036.48Z" fill="#173485"/>
<path d="M480.68 783.99C461.2 779.04 442.34 789.12 434.38 794.27V794.29C434.37 794.29 434.37 794.28 434.36 794.28C434.35 794.28 434.35 794.29 434.34 794.29V794.27C426.38 789.12 407.52 779.04 388.04 783.99C362.36 790.51 365.3 820 365.3 820C365.3 820 384.88 848.83 434.36 848.83C483.84 848.83 503.42 820 503.42 820C503.42 820 506.35 790.51 480.68 783.99Z" fill="#D65B5B"/>
<path d="M473.76 792.43C457.19 788.22 441.15 796.79 434.37 801.17V801.19C434.36 801.19 434.36 801.18 434.35 801.18C434.34 801.18 434.34 801.19 434.33 801.19V801.17C427.56 796.79 411.52 788.21 394.94 792.43C389.48 793.82 385.54 796.43 382.7 799.56C373.53 809.69 375.58 825.64 386.68 833.62C395.92 840.27 411.33 847.59 434.34 847.6C457.35 847.6 472.76 840.27 482 833.62C493.1 825.64 495.16 809.69 485.98 799.56C483.16 796.42 479.22 793.82 473.76 792.43Z" fill="#F89C9B"/>
<path d="M838.96 611.059C838.62 601.099 837.461 592.169 835.911 584.389C829.191 550.619 814.461 531.399 814.311 531.209C812.411 528.769 811.61 525.639 812.11 522.589C812.19 522.129 819.701 475.579 824.931 411.349C828.511 367.399 831.55 308.249 829.11 249.179C829.11 249.169 829.11 249.169 829.11 249.169C828.27 228.829 826.79 208.509 824.45 188.819C818.71 140.409 807.241 100.489 791.551 71.9593C791.551 71.9593 791.541 71.9493 791.541 71.9393C789.181 67.6493 786.721 63.6193 784.181 59.8593C784.171 59.8493 784.171 59.8393 784.161 59.8393C771.511 41.1493 756.641 29.0593 740.171 24.7993C693.451 12.7093 630.021 59.5193 556.561 160.229C564.481 163.669 571.491 167.319 577.681 171.019C610.031 190.389 619.85 211.249 619.85 211.249L619.791 211.189C619.621 211.009 619.461 210.839 619.301 210.669C616.601 207.929 604.92 197.009 580.38 186.169C554.14 174.589 507.501 160.769 434.361 160.769C361.221 160.769 314.59 174.579 288.35 186.169C264.08 196.879 252.391 207.689 249.531 210.569C249.301 210.799 249.08 211.039 248.86 211.279C248.85 211.289 248.85 211.289 248.85 211.289H248.841L248.87 211.249C248.87 211.249 258.691 190.399 291.051 171.019C297.231 167.319 304.241 163.669 312.171 160.229C238.701 59.5193 175.26 12.7093 128.55 24.7993C112.06 29.0693 97.1905 41.1593 84.5405 59.8593C81.9905 63.6193 79.5405 67.6493 77.1805 71.9393C77.1705 71.9593 77.1705 71.9593 77.1705 71.9593C61.4805 100.489 50.0205 140.409 44.2705 188.819C41.9305 208.509 40.4505 228.829 39.6105 249.169V249.179C37.1705 308.239 40.2105 367.389 43.7905 411.339C49.0305 475.569 56.5405 522.119 56.6105 522.579C57.1005 525.629 56.3105 528.759 54.4105 531.199C54.2605 531.389 39.5305 550.609 32.8105 584.379C31.2605 592.149 30.1005 601.069 29.7605 611.019C28.6905 641.569 35.3505 681.819 62.4305 728.329C146.591 872.909 331.55 894.499 434.35 894.499H434.381C537.171 894.499 722.141 872.919 806.301 728.329C833.351 681.849 840.02 641.609 838.96 611.059ZM128.951 298.749C129.391 297.569 150.101 243.089 183.021 219.209C186.331 216.809 187.54 212.559 185.98 208.889C180.07 194.999 166.331 171.129 140.781 167.339C118.221 163.999 105.37 175.199 102.22 178.409C102.18 178.449 102.131 178.499 102.091 178.539C102.051 178.579 102.01 178.619 101.97 178.659C101.91 178.719 101.851 178.779 101.811 178.829C101.771 178.869 101.731 178.909 101.701 178.949C101.541 179.129 101.461 179.219 101.461 179.219C101.461 179.219 110.3 151.589 142.41 156.339C173.33 160.919 189.391 188.499 196.211 204.529C199.821 213.009 197.08 222.749 189.55 228.209C188.01 229.329 186.471 230.509 184.951 231.739C184.951 231.739 184.94 231.749 184.93 231.759C155.57 255.369 129.641 297.619 128.951 298.749ZM433.021 864.859C432.861 864.859 432.701 864.859 432.541 864.849C432.121 864.849 431.691 864.839 431.281 864.839C350.661 863.399 331.211 783.759 331.211 783.759C273.111 770.909 267.741 729.529 267.941 713.319V713.249C268.001 709.179 268.401 706.729 268.401 706.729C269.021 710.749 270.43 714.799 272.47 718.789C272.47 718.789 272.47 718.789 272.47 718.799C285.17 743.559 322.401 765.739 348.771 761.869C379.381 757.369 427.761 731.109 427.761 731.109L434.35 706.009V705.869L434.371 705.939L434.391 705.869V705.999L440.97 731.099C440.97 731.099 489.35 757.359 519.97 761.859C546.34 765.739 583.581 743.559 596.271 718.789C596.271 718.779 596.281 718.779 596.281 718.779C598.321 714.799 599.72 710.759 600.35 706.729C600.35 706.729 600.771 709.259 600.811 713.429C600.991 729.709 595.521 770.939 537.531 783.769C537.531 783.769 518.08 863.409 437.46 864.849L436.2 864.859C435.6 864.879 435.001 864.879 434.401 864.869H433.531C433.341 864.869 433.181 864.869 433.021 864.859ZM526.791 486.309C526.791 435.959 560.33 395.139 601.71 395.139C643.09 395.139 676.63 435.959 676.63 486.309C676.63 536.659 643.09 577.469 601.71 577.469C560.33 577.469 526.791 536.659 526.791 486.309ZM484.7 593.439C496.15 599.969 503.501 609.149 504.791 620.449C504.931 621.639 505.001 622.849 505.001 624.079C505.001 650.029 474.431 693.639 434.381 693.669H434.34C414.31 693.659 396.661 682.749 384.011 668.589C371.361 654.439 363.72 637.049 363.72 624.069C363.72 622.839 363.791 621.619 363.931 620.439C366.651 596.649 396.19 582.259 434.34 582.249H434.381C454.401 582.269 472.06 586.239 484.7 593.439ZM683.76 231.739C682.23 230.509 680.701 229.329 679.161 228.209C671.631 222.739 668.89 213.009 672.5 204.529C679.32 188.499 695.381 160.929 726.301 156.339C758.421 151.589 767.25 179.219 767.25 179.219C767.25 179.219 767.03 178.959 766.59 178.499C766.55 178.459 766.51 178.409 766.46 178.369C766.42 178.319 766.37 178.279 766.32 178.229C766.28 178.189 766.231 178.139 766.181 178.089C762.531 174.529 749.79 164.119 727.94 167.359C702.39 171.149 688.66 195.019 682.74 208.909C681.17 212.589 682.39 216.829 685.7 219.229C718.62 243.109 739.321 297.589 739.771 298.769C739.071 297.639 713.151 255.389 683.791 231.779C683.771 231.739 683.76 231.739 683.76 231.739ZM267.001 395.139C308.371 395.139 341.921 435.959 341.921 486.309C341.921 536.659 308.381 577.469 267.001 577.469C225.621 577.469 192.081 536.659 192.081 486.309C192.081 435.959 225.621 395.139 267.001 395.139Z" fill="#00abff"/>
<path d="M370.97 373.94C356.85 397.21 324.42 386.89 293.5 368.14C262.58 349.39 247.1 321.68 261.22 298.4C275.34 275.13 311.851 271.46 342.761 290.22C373.681 308.97 385.08 350.66 370.97 373.94Z" fill="white"/>
<path d="M121.35 166.06C114.85 168.38 109.74 171.85 106.32 174.64C110.79 170.48 115.9 167.69 121.35 166.06Z" fill="white"/>
<path d="M160.17 211.31C161.81 215.57 160.82 220.41 157.61 223.66C133.35 248.25 113.73 291.1 113.73 291.1C113.73 291.1 106.1 315.09 87.01 317.06C83.4 287.45 81.99 246.19 91.69 202.53C93.94 192.41 97.72 184.56 102.53 178.67C136.71 161.91 154.12 195.55 160.17 211.31Z" fill="white"/>
<path d="M190.391 207.96L185.271 196.37C187.511 200.52 189.181 204.53 190.391 207.96Z" fill="white"/>
<path d="M193.32 218.419C192.12 219.359 190.93 220.329 189.74 221.319L192.59 215.149C193.11 217.209 193.32 218.419 193.32 218.419Z" fill="white"/>
<path d="M286.67 761.22C285.87 760.41 285.1 759.59 284.36 758.76C285.09 759.59 285.87 760.41 286.67 761.22ZM284.36 758.76C283.63 757.93 282.92 757.1 282.24 756.26C282.91 757.1 283.62 757.93 284.36 758.76ZM277.17 748.92C278.5 751.17 280.01 753.41 281.74 755.62C280.02 753.41 278.5 751.17 277.17 748.92ZM810.15 599.14C793.86 596.35 772.49 598.42 746.08 612.51C677.53 649.07 604.63 688.46 557.19 645.8C509.75 603.15 482.77 540.04 434.34 540.04C385.91 540.04 358.93 603.15 311.49 645.8C264.05 688.45 191.15 649.06 122.6 612.51C96.2098 598.43 74.8598 596.36 58.5698 599.14C56.3998 618.59 57.3498 643.13 63.9098 673.88C88.7198 790.08 270.41 877.81 434.36 877.78C598.31 877.81 780.01 790.08 804.81 673.88C811.37 643.12 812.31 618.59 810.15 599.14ZM437.44 864.84C436.43 864.86 435.41 864.87 434.38 864.86H433.51C432.76 864.86 432.02 864.85 431.28 864.84C431.11 864.84 430.94 864.83 430.77 864.83C430.31 864.82 429.85 864.81 429.4 864.79C428.85 864.77 428.3 864.75 427.76 864.73C427.39 864.71 427.01 864.69 426.65 864.67C426.3 864.65 425.95 864.63 425.6 864.6C425.03 864.57 424.46 864.53 423.9 864.48C423.3 864.44 422.7 864.39 422.11 864.32C419.18 864.04 416.35 863.65 413.6 863.16C413.22 863.09 412.84 863.03 412.47 862.95C410.6 862.59 408.77 862.2 406.97 861.76C406.1 861.54 405.25 861.32 404.4 861.09C403.51 860.85 402.63 860.6 401.76 860.32C400.93 860.07 400.1 859.81 399.29 859.54C397.28 858.87 395.34 858.14 393.44 857.37C392.49 856.99 391.56 856.59 390.64 856.17C390.18 855.96 389.73 855.76 389.27 855.55C388.82 855.34 388.37 855.13 387.92 854.91C387.47 854.69 387.03 854.47 386.59 854.25C385.61 853.76 384.65 853.25 383.71 852.73C383.38 852.55 383.05 852.37 382.72 852.18C377.95 849.49 373.59 846.48 369.61 843.27C369.38 843.08 369.14 842.89 368.91 842.7C368.3 842.2 367.7 841.69 367.11 841.18C366.83 840.95 366.56 840.71 366.29 840.46C365.9 840.12 365.52 839.78 365.14 839.43C364.86 839.18 364.58 838.92 364.31 838.66C363.63 838.03 362.97 837.4 362.31 836.75C362.08 836.52 361.84 836.29 361.61 836.06C360.94 835.39 360.28 834.71 359.63 834.02C359.34 833.71 359.05 833.4 358.77 833.1C358.21 832.5 357.66 831.9 357.13 831.29C356.02 830.04 354.96 828.78 353.93 827.51C353.67 827.2 353.42 826.88 353.18 826.57C352.92 826.26 352.68 825.94 352.44 825.63C352.2 825.31 351.95 825 351.72 824.68C351.48 824.36 351.24 824.05 351.01 823.74C350.53 823.1 350.06 822.46 349.6 821.82C349.39 821.52 349.18 821.22 348.97 820.92C348.53 820.29 348.1 819.67 347.69 819.05C347.5 818.77 347.31 818.49 347.13 818.21C346.7 817.56 346.28 816.91 345.87 816.26C345.67 815.95 345.48 815.64 345.29 815.34C344.91 814.72 344.53 814.11 344.17 813.5C343.99 813.19 343.81 812.89 343.64 812.59C342.93 811.38 342.26 810.19 341.62 809.01C341.46 808.72 341.3 808.43 341.15 808.14C340.99 807.83 340.82 807.53 340.67 807.22C340.52 806.95 340.38 806.68 340.25 806.41C339.81 805.56 339.39 804.71 338.98 803.89C338.84 803.61 338.71 803.34 338.58 803.07C337.93 801.71 337.32 800.4 336.77 799.13C336.66 798.87 336.55 798.62 336.44 798.38C335.72 796.71 335.08 795.13 334.52 793.69C334.44 793.47 334.35 793.26 334.28 793.05C334.24 792.96 334.21 792.86 334.17 792.77C334.11 792.6 334.05 792.44 333.99 792.28C333.69 791.47 333.42 790.71 333.17 790C333.08 789.72 332.98 789.46 332.89 789.19C332.73 788.72 332.58 788.27 332.45 787.85C332.38 787.63 332.31 787.43 332.25 787.23C331.79 785.78 331.5 784.73 331.35 784.19C331.32 784.07 331.29 783.97 331.27 783.9C331.24 783.79 331.23 783.74 331.23 783.74C310.25 779.1 296.15 770.74 286.7 761.2C285.9 760.39 285.13 759.57 284.39 758.74C283.66 757.91 282.95 757.08 282.27 756.24C282.1 756.03 281.93 755.82 281.77 755.61C280.04 753.4 278.53 751.16 277.2 748.91C276.33 747.43 275.53 745.95 274.81 744.48C272.64 740.04 271.13 735.65 270.09 731.51C269.93 730.86 269.77 730.21 269.63 729.58C268.21 723.13 267.9 717.42 267.95 713.32C268 709.21 268.41 706.72 268.41 706.72C269.03 710.75 270.44 714.8 272.48 718.78C272.48 718.78 272.48 718.79 272.49 718.79C273.03 719.86 273.63 720.93 274.27 721.98C274.48 722.34 274.7 722.69 274.92 723.04C274.94 723.08 274.97 723.12 274.99 723.16C275.19 723.47 275.39 723.79 275.6 724.09C275.67 724.19 275.73 724.29 275.8 724.39C275.97 724.64 276.14 724.89 276.31 725.14C276.55 725.48 276.79 725.84 277.04 726.18C277.29 726.52 277.54 726.87 277.8 727.21C278.01 727.49 278.22 727.77 278.43 728.04C278.48 728.11 278.54 728.17 278.59 728.24C278.83 728.55 279.07 728.86 279.32 729.16C279.62 729.53 279.93 729.91 280.24 730.27C280.52 730.61 280.81 730.94 281.1 731.28C281.68 731.95 282.27 732.61 282.89 733.27C283.1 733.49 283.3 733.71 283.51 733.93C283.69 734.12 283.88 734.31 284.06 734.5C284.8 735.26 285.56 736.01 286.33 736.76C289.82 740.1 293.67 743.26 297.76 746.11C298.07 746.34 298.38 746.55 298.7 746.77C300 747.67 301.33 748.53 302.68 749.36C303.13 749.64 303.58 749.92 304.04 750.19C304.52 750.47 305 750.76 305.47 751.03C306.45 751.59 307.43 752.14 308.43 752.67C308.9 752.91 309.37 753.16 309.85 753.4C310.32 753.64 310.8 753.88 311.27 754.11C311.83 754.38 312.39 754.65 312.95 754.92C313.32 755.09 313.69 755.26 314.06 755.43C314.64 755.69 315.21 755.94 315.79 756.19C316.27 756.4 316.76 756.6 317.25 756.8C317.27 756.81 317.28 756.81 317.29 756.82C317.79 757.03 318.29 757.23 318.8 757.42C319.43 757.66 320.06 757.9 320.69 758.12C320.93 758.21 321.17 758.3 321.42 758.38C321.72 758.49 322.02 758.59 322.32 758.69C322.7 758.81 323.07 758.93 323.44 759.06C323.91 759.21 324.37 759.35 324.84 759.49C325.31 759.63 325.77 759.77 326.24 759.9C326.27 759.91 326.31 759.92 326.35 759.93C326.83 760.07 327.32 760.2 327.81 760.32C327.85 760.33 327.9 760.34 327.94 760.35C328.39 760.47 328.84 760.57 329.28 760.68C329.34 760.69 329.39 760.7 329.45 760.72C329.92 760.83 330.38 760.93 330.85 761.03C331.26 761.12 331.67 761.2 332.08 761.27C333.23 761.49 334.36 761.67 335.49 761.82C335.92 761.88 336.34 761.93 336.76 761.98C337.12 762.02 337.48 762.06 337.84 762.09C338.07 762.12 338.3 762.13 338.54 762.15C338.83 762.17 339.11 762.19 339.4 762.21C339.54 762.22 339.69 762.23 339.83 762.23C340.14 762.25 340.45 762.26 340.76 762.27C343.52 762.38 346.21 762.24 348.79 761.86C379.4 757.36 427.78 731.1 427.78 731.1L434.37 706V705.86L434.39 705.93L434.41 705.86V706L440.99 731.1C440.99 731.1 489.37 757.36 519.99 761.86C522.57 762.24 525.26 762.37 528.02 762.27C528.33 762.26 528.64 762.25 528.95 762.23C529.09 762.22 529.24 762.22 529.38 762.21C529.67 762.19 529.95 762.17 530.24 762.15C530.47 762.13 530.71 762.12 530.94 762.09C531.3 762.06 531.66 762.02 532.02 761.98C532.44 761.94 532.87 761.88 533.29 761.82C534.42 761.67 535.55 761.49 536.7 761.27C537.11 761.19 537.52 761.11 537.93 761.03C538.4 760.94 538.86 760.83 539.33 760.72C539.39 760.7 539.44 760.69 539.5 760.68C539.94 760.57 540.39 760.47 540.84 760.35C540.88 760.34 540.93 760.33 540.97 760.32C541.45 760.2 541.94 760.07 542.43 759.93C542.47 759.92 542.5 759.91 542.54 759.9C543.01 759.77 543.47 759.63 543.94 759.49C544.43 759.34 544.93 759.19 545.42 759.03C545.79 758.91 546.15 758.79 546.52 758.67C546.8 758.58 547.08 758.49 547.36 758.38C547.6 758.3 547.84 758.21 548.09 758.12C548.72 757.9 549.35 757.66 549.98 757.42C550.48 757.23 550.98 757.03 551.48 756.82C551.99 756.62 552.49 756.41 552.98 756.2C553.48 755.98 553.98 755.77 554.48 755.54C554.96 755.32 555.45 755.1 555.93 754.87C555.96 754.86 555.99 754.84 556.02 754.83C556.5 754.6 556.98 754.37 557.45 754.14C557.94 753.9 558.43 753.65 558.92 753.4C559.39 753.16 559.87 752.91 560.34 752.67C560.38 752.64 560.42 752.62 560.47 752.6C560.93 752.36 561.39 752.11 561.85 751.85C562.33 751.58 562.82 751.31 563.3 751.03C563.83 750.72 564.37 750.41 564.9 750.1C565.3 749.86 565.7 749.62 566.1 749.37C567.59 748.45 569.06 747.49 570.5 746.49C570.91 746.21 571.31 745.93 571.71 745.64C572.13 745.35 572.54 745.05 572.94 744.75C573.65 744.23 574.34 743.7 575.03 743.17C575.27 742.98 575.52 742.79 575.76 742.6C579.06 739.99 582.16 737.19 584.97 734.26C585.28 733.94 585.59 733.61 585.89 733.28C586.2 732.95 586.5 732.62 586.8 732.29C589.27 729.54 591.49 726.69 593.38 723.78C593.54 723.54 593.7 723.29 593.85 723.04C594.05 722.73 594.24 722.42 594.43 722.1C595.09 721 595.71 719.9 596.28 718.79C598.32 714.81 599.73 710.75 600.35 706.73C600.35 706.73 600.77 709.26 600.81 713.43V713.45C600.98 729.74 595.49 770.95 537.53 783.76C537.53 783.76 537.52 783.81 537.49 783.92C537.47 783.99 537.45 784.09 537.41 784.21C537.27 784.75 536.98 785.8 536.51 787.25C536.45 787.45 536.38 787.66 536.31 787.87C536.18 788.29 536.03 788.74 535.87 789.21C535.78 789.47 535.69 789.74 535.59 790.02C535.34 790.73 535.07 791.49 534.77 792.3C534.71 792.46 534.65 792.62 534.59 792.79C534.56 792.88 534.52 792.97 534.48 793.07C534.4 793.28 534.32 793.49 534.24 793.71C533.68 795.16 533.04 796.73 532.32 798.4C532.21 798.64 532.1 798.89 531.99 799.15C531.43 800.41 530.83 801.72 530.18 803.09C530.05 803.36 529.92 803.63 529.78 803.91C529.38 804.73 528.96 805.58 528.51 806.43C528.38 806.7 528.24 806.97 528.09 807.24C527.93 807.55 527.77 807.85 527.61 808.16C527.46 808.45 527.3 808.74 527.14 809.03C526.5 810.2 525.83 811.4 525.12 812.61C524.95 812.91 524.77 813.21 524.59 813.52C524.23 814.13 523.86 814.74 523.47 815.36C523.28 815.67 523.09 815.97 522.89 816.28C522.48 816.93 522.06 817.58 521.63 818.23C521.45 818.51 521.26 818.79 521.07 819.07C520.65 819.69 520.22 820.32 519.79 820.94C519.58 821.24 519.37 821.53 519.16 821.84C518.7 822.48 518.23 823.12 517.75 823.76C517.52 824.07 517.29 824.38 517.04 824.7C516.81 825.02 516.56 825.33 516.32 825.65C516.08 825.96 515.84 826.28 515.58 826.59C515.34 826.9 515.09 827.22 514.83 827.53C514.58 827.84 514.32 828.15 514.06 828.47C513.8 828.78 513.54 829.09 513.28 829.4C513.02 829.71 512.75 830.02 512.48 830.33C512.22 830.64 511.95 830.95 511.67 831.26C511.4 831.57 511.12 831.88 510.84 832.19C510.56 832.5 510.28 832.81 509.99 833.11C509.13 834.03 508.26 834.95 507.35 835.86C507.05 836.17 506.74 836.47 506.44 836.76C506.1 837.1 505.74 837.44 505.39 837.78C505.12 838.04 504.84 838.3 504.57 838.55C504.25 838.85 503.93 839.14 503.61 839.43C503.23 839.77 502.85 840.12 502.46 840.46C502.19 840.7 501.92 840.94 501.64 841.18C500.95 841.78 500.24 842.37 499.53 842.95C499.21 843.22 498.88 843.48 498.56 843.73C498.21 844.01 497.85 844.29 497.5 844.56C497.12 844.86 496.73 845.15 496.33 845.45C496 845.7 495.66 845.95 495.32 846.2C494.95 846.47 494.58 846.74 494.2 847C492.98 847.86 491.74 848.7 490.45 849.52C490.16 849.71 489.86 849.9 489.55 850.09C489.15 850.34 488.75 850.59 488.34 850.83C487.93 851.07 487.53 851.32 487.12 851.56C486.76 851.77 486.4 851.98 486.03 852.18C485.7 852.37 485.37 852.55 485.04 852.73C484.1 853.25 483.14 853.76 482.16 854.25C481.72 854.47 481.28 854.69 480.83 854.91C479.91 855.35 478.97 855.79 478.02 856.22C477.13 856.61 476.23 857 475.32 857.37C473.42 858.14 471.48 858.87 469.47 859.54C468.73 859.79 467.98 860.03 467.22 860.26C466.2 860.57 465.17 860.87 464.12 861.15C463.35 861.37 462.57 861.57 461.79 861.76C460.2 862.15 458.58 862.51 456.93 862.83C456.68 862.88 456.42 862.93 456.17 862.97C455.84 863.03 455.5 863.1 455.16 863.15C452.41 863.64 449.58 864.02 446.65 864.31C446.06 864.37 445.46 864.42 444.86 864.47C444.3 864.52 443.73 864.56 443.16 864.59C442.8 864.62 442.43 864.64 442.06 864.66C441.71 864.69 441.36 864.7 441.01 864.72C440.46 864.75 439.91 864.77 439.36 864.79C438.91 864.81 438.45 864.82 437.99 864.83C437.78 864.84 437.61 864.84 437.44 864.84Z" fill="white"/>
<path d="M497.71 373.94C511.83 397.21 544.26 386.89 575.18 368.14C606.1 349.38 621.58 321.68 607.46 298.4C593.34 275.13 556.83 271.46 525.92 290.22C495 308.97 483.59 350.66 497.71 373.94Z" fill="white"/>
<path d="M676.09 215.109L678.99 221.379C677.78 220.359 676.57 219.379 675.35 218.419C675.35 218.419 675.56 217.189 676.09 215.109Z" fill="white"/>
<path d="M678.13 208.39C679.39 204.77 681.17 200.47 683.59 196.02L678.13 208.39Z" fill="white"/>
<path d="M762.15 174.449C758.76 171.709 753.79 168.389 747.51 166.109C752.81 167.719 757.78 170.439 762.15 174.449Z" fill="white"/>
<path d="M781.66 317.059C762.6 315.059 754.98 291.099 754.98 291.099C754.98 291.099 735.37 248.249 711.1 223.659C707.89 220.409 706.9 215.569 708.54 211.309C714.58 195.549 731.99 161.949 766.11 178.649H766.12C770.94 184.539 774.72 192.399 776.98 202.529C786.68 246.189 785.27 287.449 781.66 317.059Z" fill="white"/>
<path d="M192.6 215.159L189.75 221.329C154.4 251.029 123.7 305.179 107.6 336.949C103.41 345.219 91.0805 343.359 89.5205 334.209C88.6505 329.079 87.7805 323.329 87.0205 317.069C106.111 315.099 113.74 291.109 113.74 291.109C113.74 291.109 133.35 248.259 157.62 223.669C160.83 220.419 161.81 215.579 160.18 211.319C154.13 195.549 136.72 161.919 102.54 178.689C103.74 177.219 105 175.879 106.32 174.649C109.73 171.859 114.85 168.389 121.35 166.069C134.16 162.239 148.86 164.869 161.56 171.649C172.95 177.719 180.451 187.399 185.281 196.389L190.401 207.979C191.421 210.849 192.13 213.339 192.6 215.159Z" fill="#BDBDBD"/>
<path d="M102.54 178.68C102.18 178.85 101.82 179.03 101.46 179.22C101.46 179.22 101.54 179.13 101.7 178.95C101.73 178.91 101.77 178.87 101.81 178.83C101.85 178.78 101.91 178.72 101.97 178.66C102.69 177.89 104.17 176.4 106.32 174.64C105 175.87 103.74 177.21 102.54 178.68Z" stroke="black" stroke-miterlimit="10"/>
<path d="M121.35 166.06C135.67 160.93 156.7 161.32 180.98 186.65L185.27 196.37C180.44 187.39 172.95 177.71 161.55 171.63C148.85 164.86 134.15 162.23 121.35 166.06Z" stroke="black" stroke-miterlimit="10"/>
<path d="M192.6 215.16C192.14 213.34 191.43 210.86 190.4 207.96L193.1 214.07L192.6 215.16Z" stroke="black" stroke-miterlimit="10"/>
<path d="M781.66 317.06C780.9 323.33 780.04 329.07 779.16 334.2C777.6 343.35 765.27 345.21 761.08 336.94C744.99 305.19 714.31 251.08 678.99 221.37L676.09 215.1V215.09C676.53 213.37 677.19 211.06 678.13 208.38L683.59 196.01L683.6 196C688.44 187.12 695.88 177.61 707.13 171.62C719.88 164.82 734.64 162.19 747.48 166.09C747.49 166.09 747.51 166.1 747.52 166.1H747.53C753.8 168.37 758.78 171.7 762.17 174.44C763.56 175.71 764.88 177.11 766.14 178.64C732.01 161.94 714.61 195.54 708.57 211.3C706.93 215.56 707.92 220.4 711.13 223.65C735.39 248.24 755.01 291.09 755.01 291.09C755.01 291.09 762.6 315.06 781.66 317.06Z" fill="#BDBDBD"/>
<path d="M676.09 215.1L675.62 214.07L678.13 208.39C677.19 211.07 676.54 213.38 676.09 215.1Z" stroke="black" stroke-miterlimit="10"/>
<path d="M683.59 196.01L687.73 186.65C712.08 161.26 733.14 160.92 747.47 166.1C734.63 162.21 719.87 164.84 707.12 171.63C695.88 177.63 688.43 187.13 683.59 196.01Z" stroke="black" stroke-miterlimit="10"/>
<path d="M762.15 174.449C763.96 175.909 765.31 177.199 766.17 178.079C766.22 178.129 766.27 178.179 766.31 178.219C766.42 178.319 766.5 178.409 766.58 178.499C767.02 178.959 767.24 179.219 767.24 179.219C766.86 179.029 766.49 178.829 766.11 178.649H766.1C764.86 177.119 763.54 175.719 762.15 174.449Z" stroke="black" stroke-miterlimit="10"/>
<path d="M806.29 728.34C722.13 872.92 537.16 894.51 434.37 894.51H434.34C331.55 894.51 146.59 872.93 62.4199 728.34C35.3499 681.83 28.6899 641.59 29.7499 611.03C36.2699 606.38 45.8799 601.28 58.5599 599.13C56.3899 618.58 57.3399 643.12 63.8999 673.87C88.7099 790.07 270.4 877.8 434.35 877.77C598.3 877.8 780 790.07 804.8 673.87C811.37 643.12 812.31 618.59 810.14 599.13C822.82 601.29 832.44 606.39 838.95 611.05C840.02 641.61 833.35 681.85 806.29 728.34Z" fill="#BDBDBD"/>
<path d="M189.75 221.319L184.95 231.739C184.95 231.739 184.94 231.749 184.93 231.759C183.42 233.449 81.88 347.239 91.65 502.339C92.61 517.589 88.02 532.659 78.61 544.699C70.41 555.189 61.54 572.339 58.56 599.129C45.88 601.279 36.27 606.379 29.75 611.029C30.09 601.079 31.26 592.159 32.8 584.389C39.52 550.619 54.25 531.399 54.4 531.209C56.3 528.769 57.09 525.639 56.6 522.589C56.53 522.129 49.02 475.579 43.78 411.349C40.2 367.399 37.17 308.249 39.6 249.189C39.74 250.129 48.03 306.839 75.43 315.689C79.68 317.059 83.54 317.429 87.01 317.069C87.77 323.329 88.63 329.079 89.51 334.209C91.07 343.359 103.4 345.219 107.59 336.949C123.7 305.169 154.4 251.019 189.75 221.319Z" fill="#B41B0B"/>
<path d="M838.96 611.06C832.45 606.4 822.831 601.3 810.151 599.14C807.171 572.35 798.29 555.19 790.1 544.7C780.69 532.66 776.101 517.59 777.061 502.34C786.841 347.24 685.291 233.45 683.781 231.76C683.771 231.75 683.76 231.74 683.76 231.74L678.98 221.38C714.3 251.08 744.98 305.19 761.07 336.95C765.26 345.22 777.591 343.36 779.151 334.21C780.021 329.08 780.891 323.33 781.651 317.07C785.131 317.44 788.99 317.08 793.26 315.7C820.72 306.84 828.99 249.92 829.1 249.19C831.54 308.25 828.501 367.41 824.921 411.36C819.691 475.59 812.18 522.14 812.1 522.6C811.61 525.65 812.401 528.78 814.301 531.22C814.451 531.41 829.181 550.63 835.901 584.4C837.461 592.18 838.62 601.1 838.96 611.06Z" fill="#B41B0B"/>
<path d="M331.2 783.77C273.1 770.92 267.73 729.54 267.93 713.33C264.83 788.54 326.78 792.25 326.78 792.25C326.78 792.25 331.47 863.39 431.27 864.84C350.65 863.4 331.2 783.77 331.2 783.77ZM524.96 754.83C482.72 750.64 457.28 727.63 452.93 722.62C448.58 717.61 446.62 704.34 446.62 704.34C446.62 704.34 485.57 686.72 496.23 663.87C506.9 641.02 504.99 620.35 504.99 620.35L504.78 620.46C504.92 621.65 504.99 622.86 504.99 624.09C504.99 650.04 474.42 693.65 434.37 693.68H434.33C414.3 693.67 396.65 682.76 384 668.6C371.35 654.45 363.71 637.06 363.71 624.08C363.71 622.85 363.78 621.63 363.92 620.45L363.71 620.34C363.71 620.34 361.81 641.01 372.47 663.86C383.14 686.71 422.09 704.33 422.09 704.33C422.09 704.33 420.13 717.6 415.78 722.61C411.43 727.62 385.99 750.63 343.75 754.82C310.72 758.09 282.98 730.83 272.46 718.79C285.16 743.55 322.39 765.73 348.76 761.86C379.37 757.36 427.75 731.1 427.75 731.1L434.34 706V705.86L434.36 705.93L434.38 705.86V706L440.96 731.1C440.96 731.1 489.34 757.36 519.96 761.86C546.33 765.74 583.57 743.56 596.26 718.79C585.73 730.83 557.99 758.1 524.96 754.83ZM600.79 713.43C600.97 729.71 595.5 770.94 537.51 783.77C537.51 783.77 518.06 863.41 437.44 864.85C486.83 864.13 512.93 846.34 526.7 828.56C540.74 810.41 541.94 792.26 541.94 792.26C541.94 792.26 603.83 788.55 600.79 713.43Z" fill="#BDBDBD"/>
<path d="M248.84 211.3C248.84 211.31 248.83 211.32 248.82 211.32C248.82 211.31 248.83 211.3 248.84 211.3Z" stroke="black" stroke-miterlimit="10"/>
<path d="M291.04 171.02C276.72 148.16 208.22 44.84 136.51 39.69C108.5 37.68 92.6703 49.89 84.5303 59.87C97.1803 41.17 112.05 29.08 128.54 24.81C175.25 12.72 238.69 59.53 312.15 160.24C304.24 163.67 297.23 167.32 291.04 171.02Z" fill="#F6897E"/>
<path d="M619.87 211.299C618.62 210.199 577.59 175.179 434.35 175.189C291.43 175.179 250.27 210.049 248.85 211.289C249.07 211.049 249.29 210.809 249.52 210.579C252.38 207.699 264.07 196.889 288.34 186.179C314.58 174.599 361.21 160.779 434.35 160.779C507.49 160.779 554.13 174.589 580.37 186.179C604.91 197.009 616.59 207.939 619.29 210.679C619.46 210.849 619.62 211.019 619.78 211.199C619.81 211.229 619.85 211.259 619.87 211.299Z" fill="#F6897E"/>
<path d="M784.16 59.8393C776.01 49.8693 760.18 37.6693 732.2 39.6893C660.49 44.8493 591.99 148.159 577.67 171.019C571.49 167.319 564.47 163.669 556.55 160.229C630.01 59.5193 693.44 12.7093 740.16 24.7993C756.64 29.0693 771.51 41.1493 784.16 59.8393Z" fill="#F6897E"/>
<path d="M857.72 580.05C851.79 550.23 840.18 529.95 834.75 521.68C836.76 508.41 842.7 466.93 847.07 413.37C851.98 353.22 855.87 264.98 846.52 186.2C841.13 140.78 830.46 100.66 815.67 70.1797C797.69 33.1297 774.16 10.6197 745.73 3.2597C717.77 -3.9803 686.42 4.0497 652.55 27.1097C617.97 50.6597 579.99 90.5397 539.61 145.69C538.18 147.65 535.43 152.35 534.63 152.1C508.97 144.07 476.13 138.52 434.37 138.52C434.36 138.52 434.36 138.52 434.35 138.52C434.34 138.52 434.34 138.52 434.33 138.52C392.57 138.52 359.73 144.07 334.07 152.1C333.27 152.35 330.52 147.65 329.09 145.69C288.71 90.5397 250.73 50.6597 216.15 27.1097C182.28 4.0397 150.93 -3.9803 122.97 3.2597C94.54 10.6197 71.0101 33.1397 53.0301 70.1797C38.2401 100.66 27.5701 140.78 22.1801 186.2C12.8301 264.97 16.7201 353.21 21.6301 413.37C26.0001 466.92 31.9401 508.41 33.9501 521.68C28.5301 529.94 16.92 550.23 10.98 580.05C6.48004 602.68 6.13008 626.27 9.96008 650.15C14.7001 679.72 25.8801 709.79 43.1901 739.53C79.6601 802.18 137.28 849.22 214.45 879.35C277.12 903.82 353.15 916.75 434.33 916.75C434.35 916.75 434.35 916.75 434.37 916.75C515.55 916.75 591.58 903.82 654.25 879.35C731.42 849.22 789.04 802.18 825.51 739.53C842.82 709.79 854 679.72 858.74 650.15C862.57 626.27 862.23 602.68 857.72 580.05ZM806.29 728.34C722.13 872.92 537.16 894.51 434.37 894.51C434.36 894.51 434.34 894.51 434.33 894.51C331.54 894.51 146.57 872.93 62.41 728.34C26.53 666.69 26.5 616.03 32.79 584.39C39.51 550.62 54.2401 531.4 54.3901 531.21C56.2901 528.77 57.0901 525.65 56.5901 522.59C56.5201 522.13 49.0101 475.58 43.7701 411.35C38.9501 352.27 35.1301 265.71 44.2501 188.83C55.1501 96.9597 86.6601 35.6497 128.53 24.8097C175.25 12.7197 238.68 59.5297 312.14 160.24C262.79 181.67 248.85 211.26 248.85 211.26L248.79 211.33C248.9 211.2 260.13 198.63 288.32 186.18C314.56 174.59 361.2 160.78 434.34 160.78C507.48 160.78 554.11 174.59 580.36 186.18C608.55 198.63 619.78 211.2 619.89 211.33L619.83 211.26C619.83 211.26 605.89 181.67 556.54 160.24C630 59.5297 693.44 12.7197 740.15 24.8097C782.02 35.6497 813.53 96.9697 824.43 188.83C833.55 265.71 829.73 352.27 824.91 411.35C819.68 475.58 812.17 522.13 812.09 522.59C811.59 525.64 812.39 528.77 814.29 531.21C814.44 531.4 829.17 550.62 835.89 584.39C842.2 616.03 842.18 666.69 806.29 728.34Z" fill="#550400"/>
<path d="M726.3 156.34C695.38 160.92 679.32 188.5 672.5 204.53C668.89 213.01 671.63 222.75 679.16 228.21C710.61 251.02 739.48 298.29 739.77 298.77C739.77 298.77 718.98 243.35 685.69 219.21C682.38 216.81 681.17 212.56 682.73 208.89C688.64 195 702.37 171.13 727.93 167.35C753.62 163.54 766.72 178.61 767.25 179.22C767.25 179.22 758.42 151.58 726.3 156.34Z" fill="#550400"/>
<path d="M519.95 761.859C489.34 757.359 440.96 731.099 440.96 731.099L434.37 705.999V705.859L434.35 705.929L434.33 705.859V705.999L427.74 731.099C427.74 731.099 379.36 757.359 348.75 761.859C318.14 766.359 272.88 735.749 268.38 706.729C268.38 706.729 258.37 767.659 331.2 783.759C331.2 783.759 351.14 865.409 434.33 864.859C434.34 864.859 434.34 864.859 434.35 864.859C434.36 864.859 434.36 864.859 434.37 864.859C517.56 865.419 537.5 783.759 537.5 783.759C610.33 767.659 600.32 706.729 600.32 706.729C595.83 735.749 550.56 766.359 519.95 761.859ZM503.42 819.999C503.42 819.999 483.84 848.829 434.36 848.829C384.88 848.829 365.3 819.999 365.3 819.999C365.3 819.999 362.36 790.509 388.04 783.989C407.52 779.039 426.38 789.119 434.34 794.269V794.289C434.35 794.289 434.35 794.279 434.36 794.279C434.37 794.279 434.37 794.289 434.38 794.289V794.269C442.34 789.119 461.2 779.039 480.68 783.989C506.35 790.509 503.42 819.999 503.42 819.999Z" fill="#550400"/>
<path d="M601.71 577.48C643.087 577.48 676.63 536.661 676.63 486.31C676.63 435.958 643.087 395.14 601.71 395.14C560.333 395.14 526.79 435.958 526.79 486.31C526.79 536.661 560.333 577.48 601.71 577.48Z" fill="#550400"/>
<path d="M196.21 204.53C189.39 188.5 173.32 160.92 142.41 156.34C110.3 151.58 101.46 179.22 101.46 179.22C101.98 178.6 115.08 163.54 140.78 167.35C166.33 171.14 180.07 195 185.98 208.89C187.55 212.57 186.33 216.81 183.02 219.21C149.74 243.36 128.94 298.77 128.94 298.77C129.23 298.3 158.1 251.02 189.55 228.21C197.08 222.75 199.82 213.01 196.21 204.53Z" fill="#550400"/>
<path d="M434.34 693.68C434.35 693.68 434.35 693.68 434.36 693.68C434.37 693.68 434.37 693.68 434.38 693.68C474.44 693.65 505 650.04 505 624.09C505 598.14 474.43 582.27 434.38 582.26C434.37 582.26 434.37 582.26 434.36 582.26C434.35 582.26 434.35 582.26 434.34 582.26C394.28 582.27 363.72 598.13 363.72 624.09C363.71 650.04 394.28 693.65 434.34 693.68Z" fill="#550400"/>
<path d="M267 577.48C308.377 577.48 341.92 536.661 341.92 486.31C341.92 435.958 308.377 395.14 267 395.14C225.623 395.14 192.08 435.958 192.08 486.31C192.08 536.661 225.623 577.48 267 577.48Z" fill="#550400"/>
<path d="M304.778 488.564C317.376 481.29 320.107 462.436 310.879 446.452C301.65 430.468 283.956 423.407 271.358 430.681C258.76 437.954 256.029 456.808 265.258 472.792C274.487 488.776 292.18 495.838 304.778 488.564Z" fill="white"/>
<path d="M264.44 515.089C269.968 515.089 274.45 510.608 274.45 505.079C274.45 499.551 269.968 495.069 264.44 495.069C258.911 495.069 254.43 499.551 254.43 505.079C254.43 510.608 258.911 515.089 264.44 515.089Z" fill="white"/>
<path d="M603.386 472.836C612.615 456.852 609.884 437.998 597.286 430.724C584.688 423.451 566.994 430.512 557.766 446.496C548.537 462.48 551.268 481.334 563.866 488.608C576.464 495.881 594.158 488.82 603.386 472.836Z" fill="white"/>
<path d="M604.23 515.089C609.758 515.089 614.24 510.608 614.24 505.079C614.24 499.551 609.758 495.069 604.23 495.069C598.701 495.069 594.22 499.551 594.22 505.079C594.22 510.608 598.701 515.089 604.23 515.089Z" fill="white"/>
<path d="M472.3 604.749C472.3 611.359 455.3 611.709 434.34 611.709C413.38 611.709 396.38 611.359 396.38 604.749C396.38 598.139 413.38 592.779 434.34 592.779C455.3 592.779 472.3 598.139 472.3 604.749Z" fill="#8C231A"/>
<path d="M854.72 392.51C817.48 376.27 760.35 363.15 759.32 362.92H759.31C725.65 355.01 684.99 352.39 638.17 355.13C603.8 357.14 572.74 363.03 545.86 372.63C525.98 379.72 508.73 388.67 494.59 399.24C489.33 403.17 484.84 407.93 481.25 413.27C470.63 408.71 455.49 404.94 434.41 404.94C434.39 404.94 434.37 404.94 434.35 404.94C434.34 404.94 434.33 404.94 434.33 404.94C434.31 404.94 434.29 404.94 434.27 404.94C413.19 404.94 398.05 408.7 387.43 413.27C383.84 407.93 379.36 403.17 374.09 399.24C359.94 388.67 342.69 379.72 322.82 372.63C295.93 363.03 264.87 357.14 230.51 355.13C183.69 352.39 143.02 355.01 109.37 362.92H109.36C108.33 363.15 51.2002 376.27 13.9602 392.51C7.26021 395.43 2.9502 402.06 2.9502 409.37V419.35C2.9502 424.59 5.04017 429.63 8.74017 433.34L23.5302 448.13C32.2402 456.84 37.3402 468.51 37.8602 480.81C38.7402 501.66 41.3202 525.01 47.1302 548.02C51.2302 564.27 59.6802 579.4 72.2302 592.99C84.1102 605.84 99.1102 616.72 116.82 625.32C142.68 637.89 172.85 644.76 204.06 645.19C205.08 645.2 206.11 645.21 207.13 645.21C239.7 645.21 272.86 638.1 303.24 624.57C325.1 614.84 343.56 601.1 358.12 583.73C370.46 569.02 380.09 551.59 386.75 531.93C398.32 497.77 398.77 463.83 397.12 441.37C397.07 440.73 397.01 440.1 396.94 439.46C403.95 436.18 415.71 432.75 434.26 432.75C434.28 432.75 434.3 432.75 434.33 432.75C434.36 432.75 434.37 432.75 434.4 432.75C452.95 432.75 464.71 436.18 471.72 439.46C471.65 440.09 471.59 440.73 471.54 441.37C469.89 463.83 470.34 497.77 481.91 531.93C488.57 551.59 498.2 569.02 510.54 583.73C525.1 601.09 543.56 614.83 565.42 624.57C595.8 638.1 628.96 645.21 661.53 645.21C662.55 645.21 663.58 645.2 664.6 645.19C695.81 644.76 725.98 637.89 751.84 625.32C769.55 616.72 784.55 605.83 796.43 592.99C808.98 579.4 817.43 564.27 821.53 548.02C827.34 525.01 829.92 501.67 830.8 480.81C831.32 468.5 836.42 456.84 845.13 448.13L859.92 433.34C863.63 429.63 865.71 424.59 865.71 419.35V409.37C865.74 402.06 861.43 395.43 854.72 392.51ZM291.94 599.16C264.48 611.39 235.24 617.51 206.81 617.51C179.32 617.51 152.59 611.78 128.98 600.31C100.03 586.24 80.0302 564.7 74.1002 541.22C64.9302 504.88 64.5502 467.16 65.8502 441.91C67.0302 418.98 82.6402 399.27 104.69 392.88C129.91 385.56 160.41 381.89 195.64 381.89C206.3 381.89 217.37 382.22 228.88 382.9C301.42 387.15 340.57 408.93 357.45 421.53C364.4 426.72 368.74 434.69 369.38 443.42C372 478.7 369.65 564.55 291.94 599.16ZM794.59 541.21C788.67 564.69 768.66 586.23 739.71 600.3C716.09 611.77 689.37 617.5 661.88 617.5C633.45 617.5 604.21 611.38 576.75 599.15C499.04 564.54 496.69 478.7 499.29 443.39C499.93 434.66 504.28 426.69 511.22 421.5C528.1 408.9 567.25 387.12 639.79 382.87C651.3 382.2 662.37 381.86 673.03 381.86C708.27 381.86 738.76 385.54 763.98 392.85C786.04 399.25 801.65 418.95 802.82 441.88C804.13 467.15 803.76 504.88 794.59 541.21Z" fill="#550400"/>
<path opacity="0.15" d="M794.59 541.209C788.67 564.689 768.66 586.229 739.71 600.299C716.09 611.769 689.37 617.499 661.88 617.499C633.45 617.499 604.21 611.379 576.75 599.149C499.04 564.539 496.69 478.699 499.29 443.389C499.93 434.659 504.28 426.689 511.22 421.499C528.1 408.899 567.25 387.119 639.79 382.869C651.3 382.199 662.37 381.859 673.03 381.859C708.27 381.859 738.76 385.539 763.98 392.849C786.04 399.249 801.65 418.949 802.82 441.879C804.13 467.149 803.76 504.879 794.59 541.209Z" fill="white"/>
<path d="M524.311 392.069C524.311 392.069 645.74 347.239 785.88 386.409C785.87 386.409 673.151 325.479 524.311 392.069Z" fill="#A56463"/>
<path opacity="0.15" d="M74.1002 541.21C80.0202 564.69 100.03 586.23 128.98 600.3C152.6 611.77 179.32 617.5 206.81 617.5C235.24 617.5 264.48 611.38 291.94 599.15C369.65 564.55 372 478.7 369.4 443.4C368.76 434.67 364.41 426.7 357.47 421.51C340.59 408.91 301.44 387.13 228.9 382.88C217.39 382.21 206.32 381.87 195.66 381.87C160.42 381.87 129.93 385.55 104.71 392.86C82.6502 399.26 67.0402 418.96 65.8702 441.89C64.5502 467.15 64.9302 504.88 74.1002 541.21Z" fill="white"/>
<path d="M344.381 392.069C344.381 392.069 222.951 347.239 82.8105 386.409C82.8205 386.409 195.541 325.479 344.381 392.069Z" fill="#A56463"/>
</svg>
